<svg xmlns="http://www.w3.org/2000/svg" width="121px" height="85px" viewBox="0 0 121 85" fill="none" aria-hidden="true"><defs><linearGradient class="cerosgradient" data-cerosgradient="true" id="CerosGradient_id11d11905d" gradientUnits="userSpaceOnUse" x1="50%" y1="100%" x2="50%" y2="0%"><stop offset="0%" stop-color="#000000"/><stop offset="100%" stop-color="#000000"/></linearGradient><linearGradient/></defs>
<path d="M55.1729 60.79C55.1729 65.874 53.9854 70.1602 51.6104 73.6484C49.2354 77.0996 45.9697 79.7158 41.8135 81.4971C37.6943 83.2412 33.0186 84.1133 27.7861 84.1133C22.5537 84.1133 17.8594 83.2412 13.7031 81.4971C9.54688 79.7158 6.2627 77.0996 3.85059 73.6484C1.43848 70.1602 0.232422 65.874 0.232422 60.79C0.232422 57.376 0.918945 54.2959 2.29199 51.5498C3.66504 48.7666 5.57617 46.3916 8.02539 44.4248C10.5117 42.4209 13.4248 40.8994 16.7646 39.8604C20.1045 38.7842 23.7412 38.2461 27.6748 38.2461C32.9443 38.2461 37.6572 39.1738 41.8135 41.0293C45.9697 42.8848 49.2354 45.501 51.6104 48.8779C53.9854 52.2549 55.1729 56.2256 55.1729 60.79ZM39.0303 59.7324C39.0303 57.2461 38.5479 55.1123 37.583 53.3311C36.6553 51.5127 35.3379 50.1211 33.6309 49.1562C31.9238 48.1914 29.9385 47.709 27.6748 47.709C25.4111 47.709 23.4258 48.1914 21.7188 49.1562C20.0117 50.1211 18.6758 51.5127 17.7109 53.3311C16.7832 55.1123 16.3193 57.2461 16.3193 59.7324C16.3193 62.1816 16.7832 64.2969 17.7109 66.0781C18.6758 67.8594 20.0117 69.2324 21.7188 70.1973C23.4629 71.125 25.4854 71.5889 27.7861 71.5889C30.0869 71.5889 32.0723 71.125 33.7422 70.1973C35.4492 69.2324 36.748 67.8594 37.6387 66.0781C38.5664 64.2969 39.0303 62.1816 39.0303 59.7324ZM53.4473 23.4395C53.4473 27.5586 52.3525 31.2139 50.1631 34.4053C47.9736 37.5596 44.9307 40.0273 41.0342 41.8086C37.1748 43.5898 32.7588 44.4805 27.7861 44.4805C22.7764 44.4805 18.3232 43.5898 14.4268 41.8086C10.5303 40.0273 7.4873 37.5596 5.29785 34.4053C3.1084 31.2139 2.01367 27.5586 2.01367 23.4395C2.01367 18.541 3.1084 14.4219 5.29785 11.082C7.52441 7.70508 10.5674 5.14453 14.4268 3.40039C18.3232 1.65625 22.7393 0.78418 27.6748 0.78418C32.6846 0.78418 37.1191 1.65625 40.9785 3.40039C44.875 5.14453 47.918 7.70508 50.1074 11.082C52.334 14.4219 53.4473 18.541 53.4473 23.4395ZM37.416 24.1631C37.416 21.9736 37.0264 20.0811 36.2471 18.4854C35.4678 16.8525 34.3545 15.5908 32.9072 14.7002C31.4971 13.8096 29.7529 13.3643 27.6748 13.3643C25.6709 13.3643 23.9453 13.791 22.498 14.6445C21.0879 15.498 19.9932 16.7412 19.2139 18.374C18.4717 19.9697 18.1006 21.8994 18.1006 24.1631C18.1006 26.3525 18.4717 28.2822 19.2139 29.9521C19.9932 31.585 21.1064 32.8652 22.5537 33.793C24.001 34.7207 25.7451 35.1846 27.7861 35.1846C29.8271 35.1846 31.5527 34.7207 32.9629 33.793C34.4102 32.8652 35.5049 31.585 36.2471 29.9521C37.0264 28.2822 37.416 26.3525 37.416 24.1631Z" fill="white" style="fill:url(#CerosGradient_id11d11905d);"/>
<path d="M77.3828 70.8096H78.4404C82.8936 70.8096 86.7158 70.2715 89.9072 69.1953C93.1357 68.082 95.7891 66.4863 97.8672 64.4082C99.9453 62.3301 101.485 59.7881 102.487 56.7822C103.489 53.7393 103.99 50.2881 103.99 46.4287V31.0654C103.99 28.1338 103.693 25.5547 103.1 23.3281C102.543 21.1016 101.727 19.2646 100.65 17.8174C99.6113 16.333 98.3867 15.2197 96.9766 14.4775C95.6035 13.7354 94.082 13.3643 92.4121 13.3643C90.6309 13.3643 89.0537 13.8096 87.6807 14.7002C86.3076 15.5537 85.1387 16.7227 84.1738 18.207C83.2461 19.6914 82.5225 21.3984 82.0029 23.3281C81.5205 25.2207 81.2793 27.2061 81.2793 29.2842C81.2793 31.3623 81.5205 33.3477 82.0029 35.2402C82.4854 37.0957 83.209 38.7471 84.1738 40.1943C85.1387 41.6045 86.3447 42.7363 87.792 43.5898C89.2393 44.4062 90.9463 44.8145 92.9131 44.8145C94.8057 44.8145 96.4941 44.4619 97.9785 43.7568C99.5 43.0146 100.78 42.0498 101.819 40.8623C102.896 39.6748 103.712 38.3574 104.269 36.9102C104.862 35.4629 105.159 33.9971 105.159 32.5127L110.447 35.4072C110.447 38.0049 109.891 40.5654 108.777 43.0889C107.664 45.6123 106.105 47.9131 104.102 49.9912C102.135 52.0322 99.8525 53.665 97.2549 54.8896C94.6572 56.1143 91.874 56.7266 88.9053 56.7266C85.1201 56.7266 81.7617 56.04 78.8301 54.667C75.8984 53.2568 73.4121 51.3271 71.3711 48.8779C69.3672 46.3916 67.8457 43.4971 66.8066 40.1943C65.7676 36.8916 65.248 33.3105 65.248 29.4512C65.248 25.5176 65.8789 21.8252 67.1406 18.374C68.4395 14.9229 70.2764 11.8799 72.6514 9.24512C75.0635 6.61035 77.9395 4.55078 81.2793 3.06641C84.6562 1.54492 88.4043 0.78418 92.5234 0.78418C96.6426 0.78418 100.391 1.58203 103.768 3.17773C107.145 4.77344 110.039 7.03711 112.451 9.96875C114.863 12.8633 116.719 16.333 118.018 20.3779C119.354 24.4229 120.021 28.9131 120.021 33.8486V39.415C120.021 44.6846 119.446 49.583 118.296 54.1104C117.183 58.6377 115.494 62.7383 113.23 66.4121C111.004 70.0488 108.221 73.166 104.881 75.7637C101.578 78.3613 97.7373 80.3467 93.3584 81.7197C88.9795 83.0928 84.0811 83.7793 78.6631 83.7793H77.3828V70.8096Z" fill="white" style="fill:url(#CerosGradient_id11d11905d);"/>
</svg>