<svg xmlns="http://www.w3.org/2000/svg" width="124px" height="85px" viewBox="0 0 124 85" fill="none" aria-hidden="true"><defs><linearGradient class="cerosgradient" data-cerosgradient="true" id="CerosGradient_ide30980a8f" gradientUnits="userSpaceOnUse" x1="50%" y1="100%" x2="50%" y2="0%"><stop offset="0%" stop-color="#d1d1d1"/><stop offset="100%" stop-color="#d1d1d1"/></linearGradient><linearGradient/></defs>
<path d="M18.9873 35.5186H27.5596C30.3057 35.5186 32.5693 35.0547 34.3506 34.127C36.1318 33.1621 37.4492 31.8262 38.3027 30.1191C39.1934 28.375 39.6387 26.3525 39.6387 24.0518C39.6387 21.9736 39.2305 20.1367 38.4141 18.541C37.6348 16.9082 36.4287 15.6465 34.7959 14.7559C33.1631 13.8281 31.1035 13.3643 28.6172 13.3643C26.6504 13.3643 24.832 13.7539 23.1621 14.5332C21.4922 15.3125 20.1562 16.4072 19.1543 17.8174C18.1523 19.2275 17.6514 20.9346 17.6514 22.9385H1.56445C1.56445 18.4854 2.75195 14.6074 5.12695 11.3047C7.53906 8.00195 10.7676 5.42285 14.8125 3.56738C18.8574 1.71191 23.3105 0.78418 28.1719 0.78418C33.6641 0.78418 38.4697 1.6748 42.5889 3.45605C46.708 5.2002 49.918 7.7793 52.2188 11.1934C54.5195 14.6074 55.6699 18.8379 55.6699 23.8848C55.6699 26.4453 55.0762 28.9316 53.8887 31.3438C52.7012 33.7188 50.9941 35.8711 48.7676 37.8008C46.5781 39.6934 43.9062 41.2148 40.752 42.3652C37.5977 43.4785 34.0537 44.0352 30.1201 44.0352H18.9873V35.5186ZM18.9873 47.709V39.415H30.1201C34.5361 39.415 38.4141 39.916 41.7539 40.918C45.0938 41.9199 47.8955 43.3672 50.1592 45.2598C52.4229 47.1152 54.1299 49.3232 55.2803 51.8838C56.4307 54.4072 57.0059 57.209 57.0059 60.2891C57.0059 64.0742 56.2822 67.4512 54.835 70.4199C53.3877 73.3516 51.3467 75.8379 48.7119 77.8789C46.1143 79.9199 43.0713 81.4785 39.583 82.5547C36.0947 83.5938 32.291 84.1133 28.1719 84.1133C24.7578 84.1133 21.3994 83.6494 18.0967 82.7217C14.8311 81.7568 11.8623 80.3281 9.19043 78.4355C6.55566 76.5059 4.44043 74.0938 2.84473 71.1992C1.28613 68.2676 0.506836 64.7979 0.506836 60.79H16.5938C16.5938 62.8682 17.1133 64.7236 18.1523 66.3564C19.1914 67.9893 20.6201 69.2695 22.4385 70.1973C24.2939 71.125 26.3535 71.5889 28.6172 71.5889C31.1777 71.5889 33.3672 71.125 35.1855 70.1973C37.041 69.2324 38.4512 67.8965 39.416 66.1895C40.418 64.4453 40.9189 62.4229 40.9189 60.1221C40.9189 57.1533 40.3809 54.7783 39.3047 52.9971C38.2285 51.1787 36.6885 49.8428 34.6846 48.9893C32.6807 48.1357 30.3057 47.709 27.5596 47.709H18.9873Z" fill="black"/>
<path d="M123.469 70.4756V83H68.0273V72.3125L94.2451 44.2021C96.8799 41.2705 98.958 38.6914 100.479 36.4648C102.001 34.2012 103.096 32.1787 103.764 30.3975C104.469 28.5791 104.821 26.8535 104.821 25.2207C104.821 22.7715 104.413 20.6748 103.597 18.9307C102.78 17.1494 101.574 15.7764 99.9785 14.8115C98.4199 13.8467 96.4902 13.3643 94.1895 13.3643C91.7402 13.3643 89.625 13.958 87.8438 15.1455C86.0996 16.333 84.7637 17.9844 83.8359 20.0996C82.9453 22.2148 82.5 24.6084 82.5 27.2803H66.4131C66.4131 22.4561 67.5635 18.04 69.8643 14.0322C72.165 9.9873 75.4121 6.77734 79.6055 4.40234C83.7988 1.99023 88.7715 0.78418 94.5234 0.78418C100.201 0.78418 104.988 1.71191 108.885 3.56738C112.818 5.38574 115.787 8.02051 117.791 11.4717C119.832 14.8857 120.853 18.9678 120.853 23.7178C120.853 26.3896 120.426 29.0059 119.572 31.5664C118.719 34.0898 117.494 36.6133 115.898 39.1367C114.34 41.623 112.447 44.1465 110.221 46.707C107.994 49.2676 105.526 51.9209 102.817 54.667L88.7344 70.4756H123.469Z" fill="black"/>
</svg>