<svg xmlns="http://www.w3.org/2000/svg" width="123px" height="85px" viewBox="0 0 123 85" fill="none" aria-hidden="true"><defs><linearGradient class="cerosgradient" data-cerosgradient="true" id="CerosGradient_id9f1437bc5" gradientUnits="userSpaceOnUse" x1="50%" y1="100%" x2="50%" y2="0%"><stop offset="0%" stop-color="#d1d1d1"/><stop offset="100%" stop-color="#d1d1d1"/></linearGradient><linearGradient/></defs>
<path d="M58.0078 70.4756V83H2.56641V72.3125L28.7842 44.2021C31.4189 41.2705 33.4971 38.6914 35.0186 36.4648C36.54 34.2012 37.6348 32.1787 38.3027 30.3975C39.0078 28.5791 39.3604 26.8535 39.3604 25.2207C39.3604 22.7715 38.9521 20.6748 38.1357 18.9307C37.3193 17.1494 36.1133 15.7764 34.5176 14.8115C32.959 13.8467 31.0293 13.3643 28.7285 13.3643C26.2793 13.3643 24.1641 13.958 22.3828 15.1455C20.6387 16.333 19.3027 17.9844 18.375 20.0996C17.4844 22.2148 17.0391 24.6084 17.0391 27.2803H0.952148C0.952148 22.4561 2.10254 18.04 4.40332 14.0322C6.7041 9.9873 9.95117 6.77734 14.1445 4.40234C18.3379 1.99023 23.3105 0.78418 29.0625 0.78418C34.7402 0.78418 39.5273 1.71191 43.4238 3.56738C47.3574 5.38574 50.3262 8.02051 52.3301 11.4717C54.3711 14.8857 55.3916 18.9678 55.3916 23.7178C55.3916 26.3896 54.9648 29.0059 54.1113 31.5664C53.2578 34.0898 52.0332 36.6133 50.4375 39.1367C48.8789 41.623 46.9863 44.1465 44.7598 46.707C42.5332 49.2676 40.0654 51.9209 37.3564 54.667L23.2734 70.4756H58.0078Z" fill="white"/>
<path d="M84.4482 35.5186H93.0205C95.7666 35.5186 98.0303 35.0547 99.8115 34.127C101.593 33.1621 102.91 31.8262 103.764 30.1191C104.654 28.375 105.1 26.3525 105.1 24.0518C105.1 21.9736 104.691 20.1367 103.875 18.541C103.096 16.9082 101.89 15.6465 100.257 14.7559C98.624 13.8281 96.5645 13.3643 94.0781 13.3643C92.1113 13.3643 90.293 13.7539 88.623 14.5332C86.9531 15.3125 85.6172 16.4072 84.6152 17.8174C83.6133 19.2275 83.1123 20.9346 83.1123 22.9385H67.0254C67.0254 18.4854 68.2129 14.6074 70.5879 11.3047C73 8.00195 76.2285 5.42285 80.2734 3.56738C84.3184 1.71191 88.7715 0.78418 93.6328 0.78418C99.125 0.78418 103.931 1.6748 108.05 3.45605C112.169 5.2002 115.379 7.7793 117.68 11.1934C119.98 14.6074 121.131 18.8379 121.131 23.8848C121.131 26.4453 120.537 28.9316 119.35 31.3438C118.162 33.7188 116.455 35.8711 114.229 37.8008C112.039 39.6934 109.367 41.2148 106.213 42.3652C103.059 43.4785 99.5146 44.0352 95.5811 44.0352H84.4482V35.5186ZM84.4482 47.709V39.415H95.5811C99.9971 39.415 103.875 39.916 107.215 40.918C110.555 41.9199 113.356 43.3672 115.62 45.2598C117.884 47.1152 119.591 49.3232 120.741 51.8838C121.892 54.4072 122.467 57.209 122.467 60.2891C122.467 64.0742 121.743 67.4512 120.296 70.4199C118.849 73.3516 116.808 75.8379 114.173 77.8789C111.575 79.9199 108.532 81.4785 105.044 82.5547C101.556 83.5938 97.752 84.1133 93.6328 84.1133C90.2188 84.1133 86.8604 83.6494 83.5576 82.7217C80.292 81.7568 77.3232 80.3281 74.6514 78.4355C72.0166 76.5059 69.9014 74.0938 68.3057 71.1992C66.7471 68.2676 65.9678 64.7979 65.9678 60.79H82.0547C82.0547 62.8682 82.5742 64.7236 83.6133 66.3564C84.6523 67.9893 86.0811 69.2695 87.8994 70.1973C89.7549 71.125 91.8145 71.5889 94.0781 71.5889C96.6387 71.5889 98.8281 71.125 100.646 70.1973C102.502 69.2324 103.912 67.8965 104.877 66.1895C105.879 64.4453 106.38 62.4229 106.38 60.1221C106.38 57.1533 105.842 54.7783 104.766 52.9971C103.689 51.1787 102.149 49.8428 100.146 48.9893C98.1416 48.1357 95.7666 47.709 93.0205 47.709H84.4482Z" fill="white"/>
</svg>