<svg xmlns="http://www.w3.org/2000/svg" width="80px" height="14px" viewBox="0 0 80 14" fill="none" aria-hidden="true"><defs><linearGradient class="cerosgradient" data-cerosgradient="true" id="CerosGradient_idcaee10892" gradientUnits="userSpaceOnUse" x1="50%" y1="100%" x2="50%" y2="0%"><stop offset="0%" stop-color="#000000"/><stop offset="100%" stop-color="#000000"/></linearGradient><linearGradient/></defs>
<path d="M8.30566 9.76562C8.30566 9.4668 8.25879 9.20312 8.16504 8.97461C8.07715 8.74023 7.91895 8.5293 7.69043 8.3418C7.46777 8.1543 7.15723 7.97559 6.75879 7.80566C6.36621 7.63574 5.86816 7.46289 5.26465 7.28711C4.63184 7.09961 4.06055 6.8916 3.55078 6.66309C3.04102 6.42871 2.60449 6.16211 2.24121 5.86328C1.87793 5.56445 1.59961 5.22168 1.40625 4.83496C1.21289 4.44824 1.11621 4.00586 1.11621 3.50781C1.11621 3.00977 1.21875 2.5498 1.42383 2.12793C1.62891 1.70605 1.92188 1.33984 2.30273 1.0293C2.68945 0.712891 3.14941 0.466797 3.68262 0.291016C4.21582 0.115234 4.81055 0.0273438 5.4668 0.0273438C6.42773 0.0273438 7.24219 0.211914 7.91016 0.581055C8.58398 0.944336 9.09668 1.42188 9.44824 2.01367C9.7998 2.59961 9.97559 3.22656 9.97559 3.89453H8.28809C8.28809 3.41406 8.18555 2.98926 7.98047 2.62012C7.77539 2.24512 7.46484 1.95215 7.04883 1.74121C6.63281 1.52441 6.10547 1.41602 5.4668 1.41602C4.86328 1.41602 4.36523 1.50684 3.97266 1.68848C3.58008 1.87012 3.28711 2.11621 3.09375 2.42676C2.90625 2.7373 2.8125 3.0918 2.8125 3.49023C2.8125 3.75977 2.86816 4.00586 2.97949 4.22852C3.09668 4.44531 3.27539 4.64746 3.51562 4.83496C3.76172 5.02246 4.07227 5.19531 4.44727 5.35352C4.82812 5.51172 5.28223 5.66406 5.80957 5.81055C6.53613 6.01562 7.16309 6.24414 7.69043 6.49609C8.21777 6.74805 8.65137 7.03223 8.99121 7.34863C9.33691 7.65918 9.5918 8.01367 9.75586 8.41211C9.92578 8.80469 10.0107 9.25 10.0107 9.74805C10.0107 10.2695 9.90527 10.7412 9.69434 11.1631C9.4834 11.585 9.18164 11.9453 8.78906 12.2441C8.39648 12.543 7.9248 12.7744 7.37402 12.9385C6.8291 13.0967 6.21973 13.1758 5.5459 13.1758C4.9541 13.1758 4.37109 13.0938 3.79688 12.9297C3.22852 12.7656 2.70996 12.5195 2.24121 12.1914C1.77832 11.8633 1.40625 11.459 1.125 10.9785C0.849609 10.4922 0.711914 9.92969 0.711914 9.29102H2.39941C2.39941 9.73047 2.48438 10.1084 2.6543 10.4248C2.82422 10.7354 3.05566 10.9932 3.34863 11.1982C3.64746 11.4033 3.98438 11.5557 4.35938 11.6553C4.74023 11.749 5.13574 11.7959 5.5459 11.7959C6.1377 11.7959 6.63867 11.7139 7.04883 11.5498C7.45898 11.3857 7.76953 11.1514 7.98047 10.8467C8.19727 10.542 8.30566 10.1816 8.30566 9.76562Z" fill="white" style="fill:url(#CerosGradient_idcaee10892);"/>
<path d="M20.3027 11.6201V13H13.5264V11.6201H20.3027ZM13.8691 0.203125V13H12.1729V0.203125H13.8691ZM19.4062 5.70508V7.08496H13.5264V5.70508H19.4062ZM20.2148 0.203125V1.5918H13.5264V0.203125H20.2148Z" fill="white" style="fill:url(#CerosGradient_idcaee10892);"/>
<path d="M30.1289 8.93066H31.8164C31.7285 9.73926 31.4971 10.4629 31.1221 11.1016C30.7471 11.7402 30.2168 12.2471 29.5312 12.6221C28.8457 12.9912 27.9902 13.1758 26.9648 13.1758C26.2148 13.1758 25.5322 13.0352 24.917 12.7539C24.3076 12.4727 23.7832 12.0742 23.3438 11.5586C22.9043 11.0371 22.5645 10.4131 22.3242 9.68652C22.0898 8.9541 21.9727 8.13965 21.9727 7.24316V5.96875C21.9727 5.07227 22.0898 4.26074 22.3242 3.53418C22.5645 2.80176 22.9072 2.1748 23.3525 1.65332C23.8037 1.13184 24.3457 0.730469 24.9785 0.449219C25.6113 0.167969 26.3232 0.0273438 27.1143 0.0273438C28.0811 0.0273438 28.8984 0.208984 29.5664 0.572266C30.2344 0.935547 30.7529 1.43945 31.1221 2.08398C31.4971 2.72266 31.7285 3.46387 31.8164 4.30762H30.1289C30.0469 3.70996 29.8945 3.19727 29.6719 2.76953C29.4492 2.33594 29.1328 2.00195 28.7227 1.76758C28.3125 1.5332 27.7764 1.41602 27.1143 1.41602C26.5459 1.41602 26.0449 1.52441 25.6113 1.74121C25.1836 1.95801 24.8232 2.26562 24.5303 2.66406C24.2432 3.0625 24.0264 3.54004 23.8799 4.09668C23.7334 4.65332 23.6602 5.27148 23.6602 5.95117V7.24316C23.6602 7.87012 23.7246 8.45898 23.8535 9.00977C23.9883 9.56055 24.1904 10.0439 24.46 10.46C24.7295 10.876 25.0723 11.2041 25.4883 11.4443C25.9043 11.6787 26.3965 11.7959 26.9648 11.7959C27.6855 11.7959 28.2598 11.6816 28.6875 11.4531C29.1152 11.2246 29.4375 10.8965 29.6543 10.4688C29.877 10.041 30.0352 9.52832 30.1289 8.93066Z" fill="white" style="fill:url(#CerosGradient_idcaee10892);"/>
<path d="M43.9805 6.19727V7.00586C43.9805 7.9668 43.8604 8.82812 43.6201 9.58984C43.3799 10.3516 43.0342 10.999 42.583 11.5322C42.1318 12.0654 41.5898 12.4727 40.957 12.7539C40.3301 13.0352 39.627 13.1758 38.8477 13.1758C38.0918 13.1758 37.3975 13.0352 36.7646 12.7539C36.1377 12.4727 35.5928 12.0654 35.1299 11.5322C34.6729 10.999 34.3184 10.3516 34.0664 9.58984C33.8145 8.82812 33.6885 7.9668 33.6885 7.00586V6.19727C33.6885 5.23633 33.8115 4.37793 34.0576 3.62207C34.3096 2.86035 34.6641 2.21289 35.1211 1.67969C35.5781 1.14062 36.1201 0.730469 36.7471 0.449219C37.3799 0.167969 38.0742 0.0273438 38.8301 0.0273438C39.6094 0.0273438 40.3125 0.167969 40.9395 0.449219C41.5723 0.730469 42.1143 1.14062 42.5654 1.67969C43.0225 2.21289 43.3711 2.86035 43.6113 3.62207C43.8574 4.37793 43.9805 5.23633 43.9805 6.19727ZM42.3018 7.00586V6.17969C42.3018 5.41797 42.2227 4.74414 42.0645 4.1582C41.9121 3.57227 41.6865 3.08008 41.3877 2.68164C41.0889 2.2832 40.7227 1.98145 40.2891 1.77637C39.8613 1.57129 39.375 1.46875 38.8301 1.46875C38.3027 1.46875 37.8252 1.57129 37.3975 1.77637C36.9756 1.98145 36.6123 2.2832 36.3076 2.68164C36.0088 3.08008 35.7773 3.57227 35.6133 4.1582C35.4492 4.74414 35.3672 5.41797 35.3672 6.17969V7.00586C35.3672 7.77344 35.4492 8.45312 35.6133 9.04492C35.7773 9.63086 36.0117 10.126 36.3164 10.5303C36.627 10.9287 36.9932 11.2305 37.415 11.4355C37.8428 11.6406 38.3203 11.7432 38.8477 11.7432C39.3984 11.7432 39.8877 11.6406 40.3154 11.4355C40.7432 11.2305 41.1035 10.9287 41.3965 10.5303C41.6953 10.126 41.9209 9.63086 42.0732 9.04492C42.2256 8.45312 42.3018 7.77344 42.3018 7.00586Z" fill="white" style="fill:url(#CerosGradient_idcaee10892);"/>
<path d="M56.3643 0.203125V13H54.6592L48.2168 3.12988V13H46.5205V0.203125H48.2168L54.6855 10.0996V0.203125H56.3643Z" fill="white" style="fill:url(#CerosGradient_idcaee10892);"/>
<path d="M62.833 13H60.1611L60.1787 11.6201H62.833C63.7471 11.6201 64.5088 11.4297 65.1182 11.0488C65.7275 10.6621 66.1846 10.123 66.4893 9.43164C66.7998 8.73438 66.9551 7.91992 66.9551 6.98828V6.20605C66.9551 5.47363 66.8672 4.82324 66.6914 4.25488C66.5156 3.68066 66.2578 3.19727 65.918 2.80469C65.5781 2.40625 65.1621 2.10449 64.6699 1.89941C64.1836 1.69434 63.624 1.5918 62.9912 1.5918H60.1084V0.203125H62.9912C63.8291 0.203125 64.5938 0.34375 65.2852 0.625C65.9766 0.900391 66.5713 1.30176 67.0693 1.8291C67.5732 2.35059 67.96 2.9834 68.2295 3.72754C68.499 4.46582 68.6338 5.29785 68.6338 6.22363V6.98828C68.6338 7.91406 68.499 8.74902 68.2295 9.49316C67.96 10.2314 67.5703 10.8613 67.0605 11.3828C66.5566 11.9043 65.9473 12.3057 65.2324 12.5869C64.5234 12.8623 63.7236 13 62.833 13ZM61.0664 0.203125V13H59.3701V0.203125H61.0664Z" fill="white" style="fill:url(#CerosGradient_idcaee10892);"/>
<path d="M78.0029 9.76562C78.0029 9.4668 77.9561 9.20312 77.8623 8.97461C77.7744 8.74023 77.6162 8.5293 77.3877 8.3418C77.165 8.1543 76.8545 7.97559 76.4561 7.80566C76.0635 7.63574 75.5654 7.46289 74.9619 7.28711C74.3291 7.09961 73.7578 6.8916 73.248 6.66309C72.7383 6.42871 72.3018 6.16211 71.9385 5.86328C71.5752 5.56445 71.2969 5.22168 71.1035 4.83496C70.9102 4.44824 70.8135 4.00586 70.8135 3.50781C70.8135 3.00977 70.916 2.5498 71.1211 2.12793C71.3262 1.70605 71.6191 1.33984 72 1.0293C72.3867 0.712891 72.8467 0.466797 73.3799 0.291016C73.9131 0.115234 74.5078 0.0273438 75.1641 0.0273438C76.125 0.0273438 76.9395 0.211914 77.6074 0.581055C78.2812 0.944336 78.7939 1.42188 79.1455 2.01367C79.4971 2.59961 79.6729 3.22656 79.6729 3.89453H77.9854C77.9854 3.41406 77.8828 2.98926 77.6777 2.62012C77.4727 2.24512 77.1621 1.95215 76.7461 1.74121C76.3301 1.52441 75.8027 1.41602 75.1641 1.41602C74.5605 1.41602 74.0625 1.50684 73.6699 1.68848C73.2773 1.87012 72.9844 2.11621 72.791 2.42676C72.6035 2.7373 72.5098 3.0918 72.5098 3.49023C72.5098 3.75977 72.5654 4.00586 72.6768 4.22852C72.7939 4.44531 72.9727 4.64746 73.2129 4.83496C73.459 5.02246 73.7695 5.19531 74.1445 5.35352C74.5254 5.51172 74.9795 5.66406 75.5068 5.81055C76.2334 6.01562 76.8604 6.24414 77.3877 6.49609C77.915 6.74805 78.3486 7.03223 78.6885 7.34863C79.0342 7.65918 79.2891 8.01367 79.4531 8.41211C79.623 8.80469 79.708 9.25 79.708 9.74805C79.708 10.2695 79.6025 10.7412 79.3916 11.1631C79.1807 11.585 78.8789 11.9453 78.4863 12.2441C78.0938 12.543 77.6221 12.7744 77.0713 12.9385C76.5264 13.0967 75.917 13.1758 75.2432 13.1758C74.6514 13.1758 74.0684 13.0938 73.4941 12.9297C72.9258 12.7656 72.4072 12.5195 71.9385 12.1914C71.4756 11.8633 71.1035 11.459 70.8223 10.9785C70.5469 10.4922 70.4092 9.92969 70.4092 9.29102H72.0967C72.0967 9.73047 72.1816 10.1084 72.3516 10.4248C72.5215 10.7354 72.7529 10.9932 73.0459 11.1982C73.3447 11.4033 73.6816 11.5557 74.0566 11.6553C74.4375 11.749 74.833 11.7959 75.2432 11.7959C75.835 11.7959 76.3359 11.7139 76.7461 11.5498C77.1562 11.3857 77.4668 11.1514 77.6777 10.8467C77.8945 10.542 78.0029 10.1816 78.0029 9.76562Z" fill="white" style="fill:url(#CerosGradient_idcaee10892);"/>
</svg>