<svg xmlns="http://www.w3.org/2000/svg" width="122px" height="85px" viewBox="0 0 122 85" fill="none" aria-hidden="true"><defs><linearGradient class="cerosgradient" data-cerosgradient="true" id="CerosGradient_idaea9a6609" gradientUnits="userSpaceOnUse" x1="50%" y1="100%" x2="50%" y2="0%"><stop offset="0%" stop-color="#d1d1d1"/><stop offset="100%" stop-color="#d1d1d1"/></linearGradient><linearGradient/></defs>
<path d="M55.1172 35.3516V49.3789C55.1172 55.4648 54.4678 60.7158 53.1689 65.1318C51.8701 69.5107 49.9961 73.1104 47.5469 75.9307C45.1348 78.7139 42.2588 80.7734 38.9189 82.1094C35.5791 83.4453 31.8682 84.1133 27.7861 84.1133C24.5205 84.1133 21.4775 83.7051 18.6572 82.8887C15.8369 82.0352 13.2949 80.7178 11.0312 78.9365C8.80469 77.1553 6.875 74.9102 5.24219 72.2012C3.64648 69.4551 2.42188 66.1895 1.56836 62.4043C0.714844 58.6191 0.288086 54.2773 0.288086 49.3789V35.3516C0.288086 29.2656 0.9375 24.0518 2.23633 19.71C3.57227 15.3311 5.44629 11.75 7.8584 8.9668C10.3076 6.18359 13.2021 4.14258 16.542 2.84375C19.8818 1.50781 23.5928 0.839844 27.6748 0.839844C30.9404 0.839844 33.9648 1.2666 36.748 2.12012C39.5684 2.93652 42.1104 4.2168 44.374 5.96094C46.6377 7.70508 48.5674 9.9502 50.1631 12.6963C51.7588 15.4053 52.9834 18.6523 53.8369 22.4375C54.6904 26.1855 55.1172 30.4902 55.1172 35.3516ZM39.0303 51.4941V33.1807C39.0303 30.249 38.8633 27.6885 38.5293 25.499C38.2324 23.3096 37.7686 21.4541 37.1377 19.9326C36.5068 18.374 35.7275 17.1123 34.7998 16.1475C33.8721 15.1826 32.8145 14.4775 31.627 14.0322C30.4395 13.5869 29.1221 13.3643 27.6748 13.3643C25.8564 13.3643 24.2422 13.7168 22.832 14.4219C21.459 15.127 20.29 16.2588 19.3252 17.8174C18.3604 19.3389 17.6182 21.3799 17.0986 23.9404C16.6162 26.4639 16.375 29.5439 16.375 33.1807V51.4941C16.375 54.4258 16.5234 57.0049 16.8203 59.2314C17.1543 61.458 17.6367 63.3691 18.2676 64.9648C18.9355 66.5234 19.7148 67.8037 20.6055 68.8057C21.5332 69.7705 22.5908 70.4756 23.7783 70.9209C25.0029 71.3662 26.3389 71.5889 27.7861 71.5889C29.5674 71.5889 31.1445 71.2363 32.5176 70.5312C33.9277 69.7891 35.1152 68.6387 36.0801 67.0801C37.082 65.4844 37.8242 63.4062 38.3066 60.8457C38.7891 58.2852 39.0303 55.168 39.0303 51.4941Z" fill="black"/>
<path d="M121.469 70.4756V83H66.0273V72.3125L92.2451 44.2021C94.8799 41.2705 96.958 38.6914 98.4795 36.4648C100.001 34.2012 101.096 32.1787 101.764 30.3975C102.469 28.5791 102.821 26.8535 102.821 25.2207C102.821 22.7715 102.413 20.6748 101.597 18.9307C100.78 17.1494 99.5742 15.7764 97.9785 14.8115C96.4199 13.8467 94.4902 13.3643 92.1895 13.3643C89.7402 13.3643 87.625 13.958 85.8438 15.1455C84.0996 16.333 82.7637 17.9844 81.8359 20.0996C80.9453 22.2148 80.5 24.6084 80.5 27.2803H64.4131C64.4131 22.4561 65.5635 18.04 67.8643 14.0322C70.165 9.9873 73.4121 6.77734 77.6055 4.40234C81.7988 1.99023 86.7715 0.78418 92.5234 0.78418C98.2012 0.78418 102.988 1.71191 106.885 3.56738C110.818 5.38574 113.787 8.02051 115.791 11.4717C117.832 14.8857 118.853 18.9678 118.853 23.7178C118.853 26.3896 118.426 29.0059 117.572 31.5664C116.719 34.0898 115.494 36.6133 113.898 39.1367C112.34 41.623 110.447 44.1465 108.221 46.707C105.994 49.2676 103.526 51.9209 100.817 54.667L86.7344 70.4756H121.469Z" fill="black"/>
</svg>