<svg xmlns="http://www.w3.org/2000/svg" width="32px" height="32px" viewBox="0 0 32 32" fill="none" aria-hidden="true"><defs><linearGradient class="cerosgradient" data-cerosgradient="true" id="CerosGradient_id6fa54bb6e" gradientUnits="userSpaceOnUse" x1="50%" y1="100%" x2="50%" y2="0%"><stop offset="0%" stop-color="#d1d1d1"/><stop offset="100%" stop-color="#d1d1d1"/></linearGradient><linearGradient/></defs>
<circle cx="16" cy="16" r="16" fill="#FFBA09"/>
<path d="M13.6827 25.0642C13.5643 25.0118 13.4659 24.9196 13.4031 24.802C13.3402 24.6845 13.3165 24.5484 13.3356 24.4151L14.3886 17.227H11.5941C11.5055 17.2295 11.4176 17.2107 11.337 17.1719C11.2565 17.1331 11.1855 17.0754 11.1296 17.0033C11.0737 16.9312 11.0344 16.8466 11.0146 16.756C10.9948 16.6655 10.9951 16.5713 11.0156 16.4809L12.7512 8.59522C12.7818 8.45951 12.856 8.33897 12.9614 8.2539C13.0667 8.16883 13.1968 8.12442 13.3298 8.12815H19.1154C19.2018 8.12784 19.2872 8.14784 19.3653 8.18668C19.4434 8.22552 19.5122 8.28221 19.5666 8.35259C19.6219 8.42376 19.661 8.50714 19.681 8.59645C19.7011 8.68575 19.7015 8.77867 19.6824 8.86819L18.6814 13.5875H21.4296C21.538 13.5872 21.6443 13.619 21.7364 13.679C21.8285 13.7391 21.9026 13.8251 21.9503 13.9272C21.9918 14.0252 22.0077 14.1329 21.9965 14.2395C21.9854 14.346 21.9474 14.4476 21.8867 14.5338L14.3654 24.8458C14.3146 24.9248 14.2467 24.9902 14.1673 25.0365C14.0879 25.0829 13.9992 25.109 13.9083 25.1127C13.8309 25.1112 13.7544 25.0948 13.6827 25.0642Z" fill="white"/>
</svg>