<svg xmlns="http://www.w3.org/2000/svg" width="124px" height="84px" viewBox="0 0 124 84" fill="none" aria-hidden="true"><defs><linearGradient class="cerosgradient" data-cerosgradient="true" id="CerosGradient_id1ec2fac47" gradientUnits="userSpaceOnUse" x1="50%" y1="100%" x2="50%" y2="0%"><stop offset="0%" stop-color="#d1d1d1"/><stop offset="100%" stop-color="#d1d1d1"/></linearGradient><linearGradient/></defs>
<path d="M59.3438 51.7188V64.2988H0.952148L0.172852 54.5576L33.9609 0.953125H46.708L32.9033 24.0537L16.0928 51.7188H59.3438ZM50.1592 0.953125V82H34.1279V0.953125H50.1592Z" fill="white"/>
<path d="M83.1123 45.0947L70.3096 42.0332L74.9297 0.953125H120.463V13.9229H88.1221L86.1182 31.9023C87.1943 31.2715 88.8271 30.6035 91.0166 29.8984C93.2061 29.1562 95.6553 28.7852 98.3643 28.7852C102.298 28.7852 105.786 29.3975 108.829 30.6221C111.872 31.8467 114.451 33.6279 116.566 35.9658C118.719 38.3037 120.352 41.1611 121.465 44.5381C122.578 47.915 123.135 51.7373 123.135 56.0049C123.135 59.6045 122.578 63.0371 121.465 66.3027C120.352 69.5312 118.663 72.4258 116.399 74.9863C114.136 77.5098 111.297 79.4951 107.883 80.9424C104.469 82.3896 100.424 83.1133 95.748 83.1133C92.2598 83.1133 88.8828 82.5938 85.6172 81.5547C82.3887 80.5156 79.4756 78.9756 76.8779 76.9346C74.3174 74.8936 72.2578 72.4258 70.6992 69.5312C69.1777 66.5996 68.3799 63.2598 68.3057 59.5117H84.2256C84.4482 61.8125 85.042 63.7979 86.0068 65.4678C87.0088 67.1006 88.3262 68.3623 89.959 69.2529C91.5918 70.1436 93.5029 70.5889 95.6924 70.5889C97.7334 70.5889 99.4775 70.1992 100.925 69.4199C102.372 68.6406 103.541 67.5645 104.432 66.1914C105.322 64.7812 105.972 63.1484 106.38 61.293C106.825 59.4004 107.048 57.3594 107.048 55.1699C107.048 52.9805 106.788 50.9951 106.269 49.2139C105.749 47.4326 104.951 45.8926 103.875 44.5938C102.799 43.2949 101.426 42.293 99.7559 41.5879C98.123 40.8828 96.2119 40.5303 94.0225 40.5303C91.0537 40.5303 88.7529 40.9941 87.1201 41.9219C85.5244 42.8496 84.1885 43.9072 83.1123 45.0947Z" fill="white"/>
</svg>