<svg xmlns="http://www.w3.org/2000/svg" width="241px" height="241px" viewBox="0 0 241 241" fill="none" aria-hidden="true"><defs><linearGradient class="cerosgradient" data-cerosgradient="true" id="CerosGradient_id24f811ae7" gradientUnits="userSpaceOnUse" x1="50%" y1="100%" x2="50%" y2="0%"><stop offset="0%" stop-color="#d1d1d1"/><stop offset="100%" stop-color="#d1d1d1"/></linearGradient><linearGradient/></defs>
<path fill-rule="evenodd" clip-rule="evenodd" d="M229.805 159.764C230.621 159.428 231.15 158.756 231.486 157.796C231.774 156.836 231.774 156.02 231.342 155.252C230.958 154.436 230.237 153.908 229.277 153.572L223.997 151.795C223.036 151.459 222.124 151.459 221.356 151.843C220.588 152.227 220.06 152.852 219.724 153.812C219.388 154.772 219.436 155.636 219.82 156.404C220.252 157.172 220.924 157.7 221.884 158.036L227.165 159.812C228.125 160.148 229.037 160.148 229.805 159.764ZM230.189 150.883C231.294 151.267 232.158 151.843 232.83 152.611C233.502 153.38 233.934 154.34 234.126 155.252C234.27 156.26 234.174 157.316 233.79 158.468C233.406 159.62 232.83 160.581 232.062 161.253C231.294 161.925 230.429 162.405 229.421 162.597C228.413 162.789 227.405 162.741 226.301 162.357L221.116 160.629C220.012 160.244 219.1 159.668 218.428 158.9C217.708 158.132 217.276 157.22 217.132 156.212C216.988 155.204 217.084 154.1 217.468 152.948C217.852 151.795 218.428 150.883 219.196 150.163C219.916 149.491 220.828 149.011 221.836 148.819C222.844 148.627 223.901 148.723 225.005 149.107L230.189 150.883ZM214.875 161.925L229.085 169.27C229.325 169.366 229.373 169.558 229.181 169.846L228.317 171.526C228.221 171.718 228.077 171.814 227.885 171.814L215.067 172.726C215.019 172.726 214.971 172.726 214.971 172.774C214.971 172.804 214.99 172.815 215.015 172.831C215.031 172.84 215.049 172.852 215.067 172.87L224.669 177.815C224.861 177.959 224.909 178.103 224.813 178.343L223.901 180.119C223.757 180.311 223.613 180.359 223.373 180.263L209.163 172.918C208.971 172.774 208.923 172.63 209.019 172.39L209.931 170.662C210.027 170.47 210.171 170.374 210.363 170.374L223.229 169.462C223.277 169.462 223.325 169.462 223.325 169.414C223.325 169.384 223.306 169.373 223.281 169.357C223.265 169.347 223.247 169.336 223.229 169.318L213.579 164.373C213.387 164.229 213.339 164.085 213.435 163.845L214.347 162.069C214.491 161.877 214.635 161.829 214.875 161.925ZM101.677 232.83L102.733 227.357C102.925 226.349 102.781 225.485 102.253 224.717C101.773 223.997 101.053 223.565 100.093 223.373C99.1327 223.18 98.2686 223.373 97.5485 223.853C96.8284 224.333 96.3963 225.101 96.2043 226.109L95.1482 231.582C94.9561 232.59 95.1002 233.454 95.5802 234.174C96.0603 234.942 96.7804 235.374 97.7885 235.566C98.7966 235.758 99.6127 235.566 100.333 235.086C101.005 234.606 101.485 233.838 101.677 232.83ZM100.621 221.068C101.773 221.26 102.781 221.692 103.597 222.364C104.365 222.988 104.989 223.853 105.421 224.717C105.71 225.677 105.806 226.733 105.565 227.885L104.557 233.262C104.317 234.366 103.885 235.326 103.213 236.094C102.541 236.862 101.677 237.438 100.717 237.726C99.7087 238.062 98.6526 238.11 97.4524 237.87C96.2523 237.678 95.2442 237.246 94.4281 236.574C93.612 235.95 93.0359 235.134 92.6998 234.174C92.3638 233.214 92.3158 232.206 92.5078 231.054L93.5159 225.677C93.756 224.525 94.188 223.565 94.8601 222.796C95.5322 222.028 96.3963 221.452 97.3564 221.164C98.3166 220.876 99.4207 220.828 100.621 221.068ZM183.767 218.812C184.007 218.668 184.152 218.716 184.296 218.956L185.16 220.396C185.304 220.636 185.256 220.78 185.016 220.924L175.078 226.685C174.838 226.829 174.694 226.781 174.55 226.541L173.734 225.101C173.59 224.861 173.638 224.717 173.878 224.573L177.575 222.412C177.671 222.364 177.671 222.316 177.623 222.22L170.71 210.267C170.566 210.027 170.614 209.883 170.854 209.739L172.582 208.731C172.822 208.587 172.966 208.635 173.11 208.875L180.023 220.828C180.071 220.924 180.119 220.924 180.215 220.876L183.767 218.812ZM72.9213 211.803L74.6975 212.715C74.9376 212.811 74.9856 213.003 74.8896 213.195L72.0572 218.812C72.0092 218.86 72.0092 218.908 72.0092 219.004L72.1052 229.613C72.1052 229.709 72.1052 229.805 72.0572 229.853C72.0092 229.997 71.8652 229.997 71.6732 229.901L69.7049 228.941C69.5129 228.845 69.4169 228.653 69.4169 228.461V221.116C69.4169 221.068 69.4169 221.02 69.3689 221.02C69.3689 221.02 69.3209 221.02 69.2729 221.068L63.3681 225.485C63.2241 225.629 63.032 225.629 62.84 225.533L60.8718 224.525C60.6798 224.429 60.5837 224.285 60.6797 224.141C60.6797 224.109 60.7224 224.077 60.7651 224.045C60.7864 224.029 60.8078 224.013 60.8238 223.997L69.4169 217.756L69.5609 217.612L72.3932 211.995C72.5373 211.755 72.6813 211.707 72.9213 211.803ZM192.265 212.907C193.033 212.283 193.465 211.563 193.561 210.699C193.657 209.835 193.369 209.019 192.745 208.251L189.336 203.834C188.664 203.018 187.944 202.586 187.08 202.442C186.216 202.298 185.4 202.538 184.632 203.162C183.815 203.786 183.383 204.506 183.287 205.37C183.191 206.234 183.479 207.05 184.104 207.867L187.512 212.283C188.136 213.099 188.904 213.531 189.768 213.675C190.632 213.771 191.448 213.531 192.265 212.907ZM191.544 202.154L194.905 206.474C195.625 207.338 196.057 208.299 196.201 209.307C196.345 210.315 196.201 211.275 195.769 212.235C195.337 213.195 194.665 214.059 193.705 214.779C192.745 215.548 191.736 215.98 190.728 216.172C189.672 216.364 188.712 216.268 187.752 215.884C186.792 215.5 185.976 214.875 185.256 213.963L181.895 209.643C181.175 208.683 180.743 207.723 180.599 206.714C180.455 205.754 180.599 204.698 181.031 203.786C181.463 202.826 182.135 202.01 183.095 201.242C184.056 200.474 185.064 200.042 186.072 199.85C187.08 199.658 188.136 199.802 189.048 200.186C190.008 200.57 190.824 201.242 191.544 202.154ZM215.019 181.751C215.788 181.751 216.556 182.039 217.324 182.567C218.476 183.383 219.148 184.44 219.196 185.736C219.244 187.032 218.812 188.376 217.804 189.768C217.132 190.728 216.316 191.448 215.452 191.977C214.587 192.457 213.723 192.697 212.811 192.697C211.899 192.697 211.083 192.409 210.267 191.833L210.027 191.64C209.787 191.496 209.787 191.304 209.931 191.112L211.083 189.528C211.131 189.432 211.227 189.384 211.323 189.336C211.419 189.336 211.515 189.336 211.563 189.384L211.755 189.528C212.331 190.008 213.051 190.104 213.819 189.912C214.587 189.72 215.307 189.144 215.932 188.28C216.46 187.56 216.7 186.936 216.7 186.312C216.7 185.736 216.412 185.208 215.884 184.824C215.452 184.536 215.067 184.392 214.683 184.44C214.299 184.44 213.819 184.584 213.339 184.872C212.811 185.16 212.091 185.64 211.179 186.264C210.363 186.84 209.499 187.32 208.635 187.8C207.963 188.184 207.194 188.376 206.426 188.376C205.61 188.424 204.842 188.136 204.074 187.608C203.306 187.08 202.778 186.408 202.49 185.592C202.202 184.776 202.154 183.911 202.346 182.951C202.538 181.991 202.97 181.031 203.69 180.023C204.41 179.015 205.178 178.295 206.042 177.767C206.906 177.287 207.771 177.047 208.635 177.047C209.547 177.047 210.411 177.383 211.131 177.911L211.563 178.199C211.803 178.343 211.803 178.535 211.659 178.727L210.507 180.311C210.363 180.503 210.171 180.551 209.979 180.407L209.691 180.167C209.067 179.735 208.395 179.639 207.627 179.879C206.81 180.119 206.138 180.695 205.514 181.559C204.938 182.375 204.698 183.095 204.746 183.719C204.794 184.344 205.082 184.92 205.61 185.256C205.946 185.496 206.33 185.64 206.762 185.592C207.146 185.592 207.627 185.4 208.107 185.16C208.566 184.909 209.135 184.549 209.877 184.08C209.987 184.01 210.101 183.938 210.219 183.863C211.179 183.191 212.043 182.663 212.763 182.327C213.483 181.943 214.251 181.751 215.019 181.751ZM84.2508 231.87L85.787 227.405C85.835 227.309 85.787 227.261 85.6909 227.213L82.3305 226.061C81.6104 225.821 80.9383 225.821 80.3623 226.109C79.7862 226.349 79.3541 226.877 79.1141 227.549C78.8261 228.269 78.8741 228.941 79.1621 229.517C79.4501 230.141 79.9782 230.573 80.6983 230.813L84.0587 231.966C84.1548 232.014 84.2028 231.966 84.2508 231.87ZM89.2434 218.524L91.1636 219.196C91.4037 219.244 91.4997 219.436 91.4517 219.676L86.219 234.798C86.123 235.038 85.979 235.134 85.739 235.038L79.5942 232.926C78.6821 232.59 77.914 232.11 77.3379 231.486C76.7618 230.861 76.3778 230.093 76.2337 229.277C76.0897 228.413 76.1857 227.501 76.4738 226.685C76.8578 225.629 77.4339 224.813 78.202 224.285C79.0181 223.757 79.9782 223.517 80.9383 223.565C80.9383 223.565 80.9863 223.565 81.0344 223.517V223.421L80.1702 215.884V215.692C80.2182 215.5 80.3623 215.452 80.5543 215.548L82.5225 216.22C82.7146 216.316 82.8586 216.46 82.8586 216.652L83.5787 224.141C83.5787 224.189 83.6267 224.237 83.7227 224.285L86.363 225.197C86.459 225.245 86.507 225.197 86.5551 225.101L88.7633 218.764C88.8593 218.524 89.0034 218.428 89.2434 218.524ZM132.977 224.957C133.553 225.773 133.841 226.733 133.937 227.837L134.417 233.886C134.513 234.99 134.321 235.998 133.889 236.862C133.457 237.726 132.785 238.446 131.921 238.975C131.009 239.503 130.001 239.791 128.8 239.887C127.648 239.983 126.592 239.839 125.632 239.455C124.672 239.071 123.952 238.494 123.376 237.726C122.8 236.91 122.512 235.998 122.416 234.942C122.416 234.75 122.512 234.654 122.752 234.606L124.768 234.318H124.864C125.056 234.318 125.152 234.318 125.152 234.414V234.558C125.248 235.518 125.584 236.238 126.208 236.766C126.832 237.294 127.648 237.534 128.608 237.438C129.569 237.39 130.337 237.054 130.865 236.43C131.393 235.806 131.633 235.038 131.585 234.078L131.153 227.981C131.057 227.069 130.721 226.349 130.097 225.821C129.473 225.293 128.656 225.101 127.696 225.149C126.736 225.197 125.968 225.533 125.44 226.157C124.864 226.733 124.672 227.501 124.72 228.461C124.72 228.509 124.672 228.605 124.624 228.653C124.528 228.749 124.432 228.749 124.336 228.749L122.32 228.797C122.08 228.797 121.936 228.749 121.936 228.701V228.557C121.84 227.453 122.032 226.493 122.464 225.629C122.896 224.765 123.568 224.045 124.432 223.565C125.296 223.036 126.304 222.748 127.504 222.652C128.704 222.556 129.761 222.748 130.721 223.132C131.633 223.517 132.401 224.141 132.977 224.957ZM223.661 116.271L239.647 116.703C239.887 116.703 240.031 116.847 240.079 117.087L240.031 119.103C240.031 119.343 239.935 119.487 239.743 119.583L233.598 123.136C233.55 123.136 233.502 123.184 233.502 123.232C233.502 123.28 233.502 123.328 233.55 123.328L239.455 127.264C239.599 127.36 239.695 127.504 239.695 127.744L239.647 129.761C239.647 130.049 239.503 130.145 239.263 130.145L223.277 129.713C222.988 129.713 222.892 129.569 222.892 129.329L222.94 127.312C222.94 127.024 223.085 126.928 223.325 126.928L234.654 127.264C234.75 127.264 234.798 127.264 234.798 127.216C234.832 127.182 234.818 127.172 234.79 127.152C234.778 127.144 234.764 127.134 234.75 127.12L230.141 124.144C229.997 124.048 229.901 123.904 229.901 123.664L229.949 122.752C229.949 122.512 230.045 122.368 230.237 122.272L234.99 119.535C235.086 119.535 235.086 119.487 235.086 119.439C235.038 119.391 234.99 119.391 234.942 119.391L223.613 119.055C223.325 119.055 223.229 118.911 223.229 118.671L223.277 116.655C223.277 116.367 223.421 116.271 223.661 116.271ZM213.723 75.9937C213.483 76.0897 213.291 76.0417 213.195 75.8017C213.195 75.8017 212.331 73.9775 212.283 73.9775C212.187 73.7374 212.235 73.5454 212.475 73.4494L225.005 67.4006C225.053 67.3526 225.101 67.3046 225.053 67.2086L223.229 63.5121C223.133 63.2721 223.181 63.0801 223.421 62.984L224.909 62.264C225.149 62.1679 225.341 62.216 225.437 62.456L230.429 72.7773C230.525 73.0173 230.477 73.2094 230.237 73.3054L228.749 74.0255C228.509 74.1215 228.317 74.0735 228.221 73.8334L226.349 69.9929C226.301 69.9449 226.253 69.8969 226.157 69.9449L213.723 75.9937ZM222.604 107.822L220.78 97.4044C220.732 97.1644 220.828 97.0204 221.068 97.0204L236.814 94.284C237.054 94.236 237.198 94.332 237.246 94.5721L239.071 104.989C239.071 105.229 238.975 105.373 238.734 105.421L237.15 105.71C236.91 105.71 236.766 105.613 236.718 105.373L235.326 97.4524C235.326 97.3564 235.278 97.3564 235.182 97.3564L230.813 98.1245C230.717 98.1245 230.717 98.1725 230.717 98.2686L231.63 103.549C231.63 103.789 231.534 103.933 231.294 103.981L229.709 104.269C229.469 104.269 229.325 104.173 229.277 103.933L228.365 98.6526C228.317 98.6046 228.269 98.5566 228.173 98.5566L223.661 99.3247C223.613 99.3247 223.565 99.3727 223.565 99.4687L224.957 107.39C224.957 107.63 224.861 107.774 224.621 107.822L223.036 108.11C222.796 108.158 222.652 108.062 222.604 107.822ZM216.988 84.7308L216.364 82.8106C216.316 82.5705 216.364 82.4265 216.604 82.2825L231.822 77.3379C232.062 77.2419 232.206 77.3379 232.302 77.5779L232.926 79.4982C233.022 79.7382 232.926 79.8822 232.686 79.9782L226.445 82.0425C226.349 82.0905 226.301 82.1385 226.349 82.2345L228.221 87.9952C228.269 88.0913 228.317 88.1393 228.413 88.0913L234.654 86.075C234.894 85.979 235.038 86.075 235.134 86.315L235.758 88.2353C235.854 88.4753 235.758 88.6193 235.518 88.7153L220.3 93.66C220.06 93.756 219.916 93.66 219.82 93.4199L219.196 91.4997C219.1 91.2597 219.196 91.1156 219.436 91.0196L225.821 88.9554C225.917 88.9073 225.965 88.8593 225.917 88.7633L224.045 83.0026C223.997 82.9066 223.949 82.8586 223.853 82.9066L217.468 84.9709C217.228 85.0669 217.084 84.9709 216.988 84.7308ZM144.883 233.934C144.931 233.934 144.979 233.886 144.979 233.838C144.979 233.838 145.699 225.341 145.651 225.293C145.651 225.197 145.603 225.149 145.507 225.149L140.754 226.205C140.658 226.205 140.61 226.301 140.658 226.397L144.786 233.838C144.786 233.934 144.834 233.934 144.883 233.934ZM146.467 219.82L148.579 219.34C148.675 219.34 148.771 219.34 148.867 219.388C148.915 219.436 148.963 219.532 148.963 219.676L147.379 236.43C147.379 236.622 147.283 236.766 147.043 236.814L144.306 237.39C144.114 237.438 143.922 237.39 143.826 237.198L135.377 222.652C135.377 222.628 135.365 222.604 135.353 222.58C135.341 222.556 135.329 222.532 135.329 222.508C135.329 222.316 135.377 222.22 135.617 222.172L137.73 221.692C137.922 221.644 138.114 221.692 138.21 221.884L139.458 224.141C139.506 224.237 139.554 224.237 139.65 224.237L145.795 222.892C145.891 222.892 145.939 222.844 145.939 222.748L146.131 220.204C146.131 220.012 146.227 219.868 146.467 219.82ZM114.783 237.342L118.911 237.582C119.151 237.63 119.295 237.726 119.247 238.062L119.151 239.695C119.151 239.983 119.007 240.079 118.767 240.079L107.342 239.407C107.054 239.407 106.958 239.263 106.958 239.023L107.054 237.39C107.054 237.102 107.198 237.006 107.438 237.006L111.71 237.246C111.806 237.246 111.854 237.198 111.854 237.102L112.622 223.325C112.622 223.036 112.766 222.94 113.006 222.94L115.023 223.036C115.311 223.036 115.407 223.181 115.407 223.421L114.639 237.198C114.639 237.294 114.687 237.342 114.783 237.342ZM158.852 215.644C159.092 215.548 159.236 215.644 159.332 215.884L164.661 230.957C164.757 231.198 164.661 231.342 164.421 231.438L154.484 234.99C154.244 235.086 154.1 234.99 154.004 234.75L153.476 233.214C153.38 232.974 153.476 232.83 153.716 232.734L161.253 230.045C161.349 229.997 161.397 229.949 161.349 229.853L159.86 225.677C159.812 225.581 159.764 225.533 159.668 225.581L154.628 227.357C154.388 227.453 154.244 227.357 154.148 227.117L153.62 225.581C153.524 225.341 153.62 225.197 153.86 225.101L158.9 223.325C158.996 223.277 159.044 223.229 158.996 223.132L156.74 216.796C156.644 216.556 156.74 216.412 156.98 216.316L158.852 215.644ZM198.265 187.368C198.409 187.176 198.601 187.176 198.793 187.368C198.793 187.368 210.363 198.457 210.315 198.505C210.507 198.649 210.507 198.841 210.315 199.033L208.923 200.474C208.779 200.666 208.587 200.666 208.395 200.474L203.642 195.913C203.594 195.865 203.498 195.865 203.45 195.913L199.273 200.282C199.225 200.33 199.225 200.426 199.273 200.474L204.026 205.034C204.218 205.178 204.218 205.37 204.026 205.562L202.634 207.002C202.49 207.194 202.298 207.194 202.106 207.002L190.584 195.913C190.392 195.769 190.392 195.577 190.584 195.385L191.977 193.945C192.121 193.753 192.313 193.753 192.505 193.945L197.353 198.553C197.401 198.601 197.497 198.601 197.545 198.553L201.722 194.185C201.77 194.137 201.77 194.041 201.722 193.993L196.873 189.336C196.681 189.192 196.681 189 196.873 188.808L198.265 187.368ZM234.414 143.586C235.134 143.106 235.566 142.386 235.758 141.378C235.902 140.418 235.758 139.554 235.326 138.834C234.798 138.114 234.03 137.682 233.022 137.49L227.549 136.481C226.541 136.289 225.677 136.433 224.957 136.913C224.237 137.442 223.805 138.162 223.613 139.122C223.421 140.13 223.613 140.946 224.093 141.666C224.573 142.386 225.341 142.818 226.349 143.01L231.822 144.018C232.83 144.21 233.694 144.066 234.414 143.586ZM233.454 134.753C234.606 134.945 235.566 135.377 236.334 136.049C237.102 136.721 237.678 137.586 237.918 138.498C238.254 139.506 238.302 140.562 238.062 141.762C237.822 142.962 237.39 143.97 236.766 144.786C236.142 145.603 235.326 146.179 234.366 146.515C233.406 146.851 232.398 146.899 231.246 146.707L225.869 145.699C224.765 145.507 223.757 145.075 222.988 144.402C222.22 143.73 221.692 142.914 221.356 141.906C221.02 140.946 220.972 139.842 221.212 138.642C221.452 137.49 221.836 136.481 222.508 135.665C223.085 134.849 223.949 134.273 224.909 133.937C225.869 133.601 226.925 133.553 228.077 133.745L233.454 134.753ZM55.3511 36.8687C56.1672 36.2446 56.5992 35.5245 56.6952 34.6604C56.7913 33.7963 56.5512 32.9322 55.8791 32.0681L52.4707 27.6515C51.8466 26.8354 51.0785 26.4034 50.2144 26.2594C49.3503 26.1633 48.5342 26.4034 47.7181 27.0275C46.95 27.6515 46.5179 28.3716 46.4219 29.2357C46.3259 30.0998 46.614 30.964 47.238 31.7801L50.6465 36.1966C51.3186 37.0127 52.0386 37.4448 52.9028 37.5888C53.7669 37.7328 54.583 37.4928 55.3511 36.8687ZM54.679 26.0673L58.0394 30.3879C58.7595 31.3 59.1916 32.2601 59.2876 33.3643C59.4316 34.3724 59.2876 35.3325 58.8555 36.2926C58.4235 37.2528 57.7514 38.0689 56.7913 38.837C55.8311 39.6051 54.823 40.0371 53.8149 40.2291C52.7587 40.4212 51.7986 40.2771 50.8385 39.8931C49.8784 39.509 49.0623 38.837 48.3422 37.9248L44.9817 33.6043C44.3097 32.6922 43.8776 31.7321 43.7336 30.7239C43.5896 29.7158 43.7336 28.7077 44.1656 27.7955C44.5977 26.8354 45.2698 25.9713 46.2299 25.2512C47.19 24.4831 48.1982 24.0511 49.2063 23.859C50.2144 23.667 51.2705 23.763 52.1827 24.1471C53.1428 24.5311 53.9589 25.1552 54.679 26.0673ZM179.111 15.506C179.303 15.602 179.399 15.746 179.303 15.89C179.255 15.938 179.207 15.986 179.159 16.0821L170.566 22.3229C170.566 22.3709 170.518 22.4189 170.47 22.4669L167.637 28.0836C167.493 28.3236 167.349 28.3716 167.109 28.2756L165.333 27.3635C165.093 27.2195 165.045 27.0755 165.141 26.8354L167.973 21.2187C168.021 21.1227 168.021 21.0747 168.021 21.0267L167.925 10.4173C167.925 10.3213 167.925 10.2253 167.973 10.1773C168.021 10.0333 168.165 10.0333 168.358 10.1293L170.326 11.0894C170.518 11.1854 170.614 11.3775 170.614 11.5695L170.566 18.9144C170.566 18.9624 170.566 19.0104 170.614 19.0104C170.614 19.0104 170.662 19.0104 170.71 18.9624L176.615 14.5459C176.759 14.4018 176.951 14.4018 177.143 14.4979L179.111 15.506ZM81.1304 24.3391C80.8903 24.4351 80.7463 24.3391 80.6503 24.0991L75.3216 9.02515C75.2256 8.78512 75.3216 8.64111 75.5616 8.54509L85.4989 4.99264C85.739 4.89663 85.883 4.99264 85.979 5.23267L86.507 6.76886C86.6031 7.00889 86.507 7.15291 86.267 7.24893L78.7301 9.93727C78.634 9.98527 78.586 10.0333 78.634 10.1293L80.1222 14.3058C80.1702 14.4018 80.2182 14.4498 80.3143 14.4018L85.3549 12.6256C85.5949 12.5296 85.739 12.6256 85.835 12.8656L86.363 14.4018C86.459 14.6419 86.363 14.7859 86.123 14.8819L81.0824 16.6581C80.9863 16.7061 80.9383 16.7541 80.9863 16.8502L83.2426 23.187C83.3386 23.427 83.2426 23.571 83.0026 23.667L81.1304 24.3391ZM69.1288 30.2439L67.4006 31.252C67.2086 31.396 67.0166 31.348 66.8245 31.108L59.9117 19.1544C59.8636 19.0584 59.8156 19.0584 59.7196 19.1064L56.1672 21.1707C55.9271 21.3147 55.7831 21.2667 55.6391 21.0267L54.823 19.5865C54.679 19.3465 54.727 19.2025 54.967 19.0584L64.9043 13.2977C65.1443 13.1537 65.2883 13.2017 65.4324 13.4417L66.2485 14.8819C66.3925 15.1219 66.3445 15.2659 66.1044 15.41L62.408 17.5702C62.312 17.6182 62.312 17.6663 62.36 17.7623L69.2729 29.7158C69.4169 29.9558 69.3689 30.0998 69.1288 30.2439ZM107.054 15.0259C106.478 14.2098 106.19 13.2497 106.094 12.1456C106.094 12.1456 105.661 6.2408 105.613 6.09678C105.517 4.99264 105.71 3.98451 106.142 3.1204C106.574 2.25629 107.246 1.48819 108.11 1.00813C109.022 0.480061 110.03 0.192023 111.23 0.0960108C112.382 0 113.438 0.144018 114.399 0.528067C115.311 0.86411 116.079 1.48819 116.655 2.25629C117.231 3.07239 117.519 3.98451 117.615 5.04064C117.615 5.23267 117.519 5.32868 117.279 5.37669L115.263 5.66473H115.167C114.975 5.66473 114.879 5.66472 114.879 5.56871V5.42469C114.783 4.46457 114.447 3.74448 113.823 3.21641C113.198 2.68834 112.382 2.44831 111.422 2.54433C110.462 2.59233 109.694 2.92837 109.166 3.55245C108.638 4.17653 108.398 4.94463 108.446 5.90476L108.878 12.0015C108.974 12.9136 109.31 13.6337 109.934 14.1618C110.558 14.6899 111.374 14.9299 112.334 14.8339C113.294 14.7859 114.063 14.4498 114.591 13.8258C115.119 13.2497 115.359 12.4816 115.311 11.5215C115.311 11.4735 115.359 11.3775 115.407 11.3294C115.503 11.2334 115.599 11.2334 115.695 11.2334L117.711 11.1854C117.951 11.1854 118.095 11.2334 118.095 11.2814V11.4255C118.191 12.5296 117.999 13.4897 117.567 14.3538C117.135 15.2179 116.463 15.938 115.599 16.4181C114.735 16.9462 113.727 17.2342 112.526 17.3302C111.326 17.4262 110.27 17.2342 109.31 16.8502C108.35 16.4181 107.63 15.842 107.054 15.0259ZM95.1002 6.09678C95.0521 6.09678 95.0041 6.14479 95.0041 6.19279C95.0041 6.19279 94.332 14.6419 94.332 14.7379C94.332 14.8339 94.3801 14.8819 94.4761 14.8819L99.2287 13.8258C99.3247 13.8258 99.3727 13.7298 99.3247 13.6337L95.1962 6.19279C95.1962 6.09678 95.1482 6.09678 95.1002 6.09678ZM93.5639 20.1626L91.4517 20.6426C91.3077 20.6906 91.2116 20.6426 91.1636 20.5946C91.1156 20.5466 91.0676 20.4506 91.0676 20.3066L92.6518 3.55245C92.6518 3.36043 92.7479 3.21641 92.9879 3.1684L95.7242 2.59233C95.9163 2.54433 96.1083 2.59233 96.2043 2.78436L104.653 17.3302C104.653 17.3542 104.665 17.3782 104.677 17.4022C104.689 17.4262 104.701 17.4502 104.701 17.4742C104.701 17.6663 104.653 17.7623 104.413 17.8103L102.301 18.2903C102.109 18.3383 101.917 18.2903 101.821 18.0983L100.573 15.842C100.525 15.746 100.477 15.746 100.381 15.746L94.236 17.0902C94.14 17.0902 94.092 17.1382 94.092 17.2342L93.9 19.7785C93.9 19.9705 93.804 20.1146 93.5639 20.1626ZM138.306 7.15291L137.25 12.6256C137.058 13.6337 137.202 14.4979 137.73 15.266C138.21 15.986 138.93 16.4181 139.89 16.6101C140.85 16.8021 141.714 16.6101 142.434 16.1301C143.154 15.65 143.586 14.8819 143.778 13.8738L144.835 8.40107C145.027 7.39294 144.883 6.52883 144.402 5.80874C143.922 5.04064 143.202 4.60859 142.194 4.41656C141.186 4.22454 140.37 4.41656 139.65 4.89662C138.978 5.37669 138.498 6.14479 138.306 7.15291ZM139.41 18.9144C138.258 18.7224 137.25 18.2903 136.433 17.6182C135.617 16.9942 135.041 16.1781 134.705 15.1699C134.417 14.2098 134.321 13.1537 134.561 12.0015L135.473 6.72086C135.713 5.61672 136.145 4.65659 136.817 3.8885C137.49 3.1204 138.354 2.54432 139.314 2.25629C140.322 1.92024 141.426 1.87224 142.578 2.11227C143.778 2.3043 144.786 2.73635 145.603 3.40843C146.419 4.03251 146.995 4.84862 147.331 5.80874C147.667 6.76886 147.763 7.77699 147.523 8.92914L146.515 14.3058C146.275 15.458 145.843 16.4181 145.171 17.1862C144.498 17.9543 143.634 18.5304 142.674 18.8184C141.714 19.1064 140.61 19.1544 139.41 18.9144ZM37.3488 32.9802C37.4928 32.7882 37.6848 32.7882 37.8768 32.9802L49.4463 44.0696C49.6383 44.2136 49.6383 44.4057 49.4463 44.5977L48.0541 46.0379C47.9101 46.2299 47.7181 46.2299 47.5261 46.0379L42.6774 41.3813C42.6294 41.3333 42.5334 41.3333 42.4854 41.3813L38.3089 45.7498C38.2609 45.7979 38.2609 45.8939 38.3089 45.9419L43.1575 50.5985C43.3495 50.7425 43.3495 50.9345 43.1575 51.1265L41.7653 52.5667C41.6213 52.7587 41.4293 52.7587 41.2373 52.5667L29.6678 41.4773C29.4758 41.3333 29.4758 41.1413 29.6678 40.9492L31.06 39.509C31.204 39.317 31.396 39.317 31.588 39.509L36.3406 44.0696C36.3886 44.1656 36.4847 44.1176 36.5327 44.0696L40.7092 39.7011C40.8052 39.6531 40.7572 39.5571 40.7092 39.509L35.9566 34.9485C35.7646 34.8044 35.7646 34.6124 35.9566 34.4204L37.3488 32.9802ZM155.732 8.11304L154.196 12.5776C154.148 12.6736 154.196 12.7216 154.292 12.7696L157.652 13.9218C158.372 14.1618 159.044 14.1618 159.62 13.8738C160.196 13.6337 160.629 13.1057 160.869 12.4336C161.157 11.7135 161.109 11.0414 160.821 10.4653C160.533 9.84126 160.004 9.4092 159.284 9.16917L155.924 8.01702C155.828 7.96902 155.78 8.01702 155.732 8.11304ZM150.739 21.5067L148.819 20.8347C148.579 20.7386 148.483 20.5466 148.531 20.3546L153.764 5.23267C153.86 4.99264 154.004 4.89663 154.244 4.99264L160.388 7.10491C161.253 7.39295 162.021 7.87301 162.645 8.54509C163.221 9.16917 163.605 9.93727 163.749 10.7534C163.893 11.5695 163.845 12.4336 163.509 13.3457C163.125 14.4018 162.549 15.2179 161.781 15.746C160.965 16.2741 160.052 16.5141 159.044 16.4661C159.044 16.4661 158.996 16.4661 158.948 16.5141V16.6101L159.812 24.1471V24.3391C159.764 24.5311 159.62 24.5791 159.428 24.4831L157.46 23.811C157.268 23.715 157.124 23.571 157.124 23.379L156.404 15.89C156.404 15.842 156.356 15.794 156.26 15.746L153.62 14.8339C153.524 14.7859 153.476 14.8339 153.428 14.9299L151.219 21.2667C151.123 21.5067 150.979 21.6028 150.739 21.5067ZM10.1773 80.2182C9.36119 80.5543 8.83313 81.2264 8.49708 82.1865C8.20905 83.1466 8.25705 83.9147 8.6411 84.7308C9.02515 85.5469 9.74525 86.075 10.7054 86.411L15.986 88.1873C16.9462 88.5233 17.8583 88.5233 18.6264 88.1393C19.3945 87.7552 19.9225 87.1311 20.2586 86.171C20.5946 85.2109 20.5466 84.3468 20.1626 83.5787C19.7305 82.8106 19.0584 82.2825 18.0983 81.9465L12.8176 80.1702C11.8575 79.8342 10.9454 79.8342 10.1773 80.2182ZM9.84126 89.0994C8.73712 88.7153 7.87301 88.1393 7.20092 87.3712C6.52883 86.6031 6.09678 85.6909 5.90476 84.6828C5.76074 83.6747 5.85675 82.6186 6.2408 81.4664C6.62485 80.3143 7.20092 79.4021 7.96902 78.682C8.73711 77.962 9.60123 77.4819 10.6094 77.2899C11.6175 77.0978 12.6256 77.1459 13.7298 77.5299L18.9144 79.3061C20.0186 79.6902 20.9307 80.2663 21.6028 81.0344C22.3229 81.8025 22.7549 82.7146 22.8989 83.7227C23.0429 84.7308 22.9469 85.835 22.5629 86.9871C22.1788 88.1393 21.6028 89.0514 20.8347 89.7715C20.1146 90.4436 19.2025 90.9236 18.1943 91.1156C17.1862 91.3077 16.1301 91.2117 15.0259 90.8276L9.84126 89.0994ZM125.2 2.64034L121.071 2.40031C120.831 2.40031 120.735 2.25629 120.735 2.01626L120.831 0.384051C120.831 0.0960137 120.975 0 121.215 0L132.641 0.576072C132.929 0.576072 133.025 0.720092 133.025 0.960123L132.929 2.59233C132.929 2.88037 132.785 2.97638 132.545 2.97638L128.272 2.73635C128.176 2.73635 128.128 2.78436 128.128 2.88037L127.36 16.6581C127.36 16.9462 127.216 17.0422 126.976 17.0422L124.96 16.9462C124.672 16.9462 124.576 16.8021 124.576 16.5621L125.344 2.78436C125.344 2.68834 125.296 2.64034 125.2 2.64034ZM16.6101 59.6716L30.8199 67.0166C31.06 67.1606 31.108 67.3046 31.012 67.4966L30.0998 69.2248C30.0038 69.4169 29.8598 69.5129 29.6678 69.5129L16.8021 70.425C16.7541 70.425 16.7061 70.425 16.7061 70.473C16.7061 70.5027 16.7245 70.514 16.7498 70.5297C16.7655 70.5394 16.7838 70.5507 16.8021 70.569L26.4514 75.5136C26.6434 75.6577 26.6914 75.8017 26.5954 76.0417L25.6833 77.8179C25.5393 78.01 25.3952 78.058 25.1552 77.962L10.9454 70.617C10.7534 70.473 10.7054 70.329 10.8014 70.089L11.6655 68.4087C11.7615 68.2167 11.9055 68.1207 12.0975 68.1207L24.9152 67.2086C24.9632 67.2086 25.0112 67.2086 25.0112 67.1606C25.0112 67.1309 24.9929 67.1196 24.9675 67.1039C24.9519 67.0942 24.9335 67.0829 24.9152 67.0646L15.314 62.1199C15.1219 61.9759 15.0259 61.8319 15.1699 61.5919L16.0821 59.8156C16.2261 59.6236 16.3701 59.5756 16.6101 59.6716ZM5.61672 96.4443C4.89662 96.9244 4.46457 97.6445 4.27255 98.6526C4.08052 99.6127 4.22454 100.429 4.7046 101.197C5.23267 101.917 6.00077 102.349 7.00889 102.541L12.4816 103.549C13.4897 103.741 14.3538 103.597 15.0739 103.117C15.794 102.589 16.2261 101.869 16.4181 100.909C16.6101 99.9008 16.4181 99.0847 15.938 98.3646C15.458 97.6445 14.6899 97.2124 13.6817 97.0204L8.20905 96.0123C7.20092 95.8202 6.33681 95.9643 5.61672 96.4443ZM6.57684 105.229C5.42469 105.037 4.46457 104.605 3.69647 103.933C2.92837 103.261 2.3523 102.445 2.11227 101.485C1.77623 100.477 1.72822 99.4207 1.96825 98.2206C2.20828 97.0204 2.64034 96.0123 3.26442 95.1962C3.8885 94.3801 4.7046 93.804 5.66473 93.4679C6.62485 93.1319 7.63298 93.0839 8.78512 93.2759L14.1618 94.284C15.266 94.4761 16.2741 94.9081 17.0422 95.5802C17.8103 96.2523 18.3863 97.1164 18.6744 98.0765C19.0104 99.0366 19.0584 100.141 18.8184 101.341C18.5784 102.493 18.1463 103.501 17.5222 104.317C16.9462 105.133 16.0821 105.71 15.1219 106.046C14.1618 106.382 13.1057 106.43 11.9535 106.238L6.57684 105.229ZM26.2594 164.037C26.4994 163.941 26.6914 163.989 26.7874 164.229L27.6035 166.053C27.6995 166.293 27.6515 166.485 27.4115 166.581L14.9779 172.63C14.9299 172.678 14.8819 172.726 14.9299 172.822L16.7541 176.519C16.8502 176.759 16.8021 176.951 16.5621 177.047L15.0739 177.767C14.8339 177.863 14.6419 177.815 14.5459 177.575L9.55322 167.253C9.45721 167.013 9.50522 166.821 9.74525 166.725L11.2334 166.005C11.4735 165.909 11.6655 165.957 11.7615 166.197L13.6337 170.038C13.6817 170.086 13.7298 170.134 13.8258 170.086L26.2594 164.037ZM33.6523 51.7026C34.4684 51.6546 35.2365 51.9426 36.0046 52.4707C36.7247 52.9508 37.2528 53.6228 37.4448 54.487C37.7328 55.3031 37.7808 56.1672 37.5888 57.1273C37.3968 58.0874 36.9647 59.0475 36.2446 60.0557C35.5245 61.0638 34.7564 61.7839 33.8923 62.312C33.0282 62.792 32.1641 63.0321 31.3 63.0321C30.3879 63.0321 29.5718 62.744 28.8037 62.1679L28.3716 61.8799C28.1316 61.7359 28.1316 61.5439 28.2756 61.3518L29.4278 59.7676C29.5718 59.5756 29.7638 59.5276 29.9558 59.6716L30.2919 59.9117C30.916 60.3437 31.588 60.4397 32.3561 60.1997C33.1242 59.9597 33.8443 59.3836 34.4684 58.5195C35.0445 57.7034 35.2845 56.9833 35.2365 56.3592C35.1885 55.7351 34.9005 55.2071 34.3724 54.823C34.0364 54.583 33.6523 54.439 33.2202 54.487C32.7402 54.535 32.3081 54.679 31.8761 54.919C31.4163 55.1698 30.8473 55.5298 30.1057 55.999C29.9956 56.0686 29.8817 56.1407 29.7638 56.2152C28.7557 56.8873 27.9396 57.4153 27.2195 57.7514C26.4994 58.1354 25.7313 58.3274 24.9632 58.3274C24.1951 58.3274 23.427 58.0394 22.6589 57.5113C21.5067 56.6952 20.8827 55.6391 20.8347 54.3429C20.7867 53.0468 21.2187 51.7026 22.2268 50.3104C22.9469 49.3503 23.715 48.6302 24.5791 48.1021C25.3472 47.6221 26.2594 47.382 27.2195 47.382C28.1316 47.382 29.0437 47.7181 29.7638 48.2462L30.0038 48.4382C30.2439 48.5822 30.2439 48.7742 30.0998 48.9663L28.9477 50.5505C28.8997 50.6465 28.8037 50.6945 28.7077 50.7425C28.6117 50.7425 28.5156 50.7425 28.4676 50.6945L28.2756 50.5505C27.6995 50.0704 26.9794 49.9744 26.2113 50.1664C25.4432 50.3584 24.7232 50.9345 24.0991 51.7986C23.571 52.5187 23.331 53.1428 23.331 53.7669C23.379 54.3429 23.667 54.871 24.1951 55.2551C24.6271 55.5431 25.0112 55.6871 25.3952 55.6391C25.7793 55.6391 26.2594 55.4951 26.7394 55.2071C27.2675 54.919 27.9876 54.439 28.8997 53.8149C29.9078 53.1428 30.7719 52.6147 31.444 52.2787C32.1161 51.8946 32.8842 51.7026 33.6523 51.7026ZM22.9949 155.252L23.619 157.172C23.715 157.412 23.619 157.604 23.379 157.652L8.16104 162.597C7.92101 162.693 7.77699 162.597 7.68098 162.357L7.0569 160.436C6.96089 160.196 7.0569 160.052 7.29693 159.956L13.5377 157.892C13.6337 157.844 13.6817 157.796 13.6337 157.7L11.7615 151.939C11.7135 151.843 11.6655 151.795 11.5695 151.843L5.32868 153.908C5.08865 154.004 4.94463 153.908 4.84862 153.668L4.22454 151.747C4.12853 151.507 4.22454 151.363 4.46457 151.267L19.6825 146.323C19.9225 146.227 20.0666 146.323 20.1626 146.563L20.7867 148.483C20.8827 148.723 20.7867 148.867 20.5466 148.963L14.1618 151.027C14.0658 151.075 14.0178 151.123 14.0658 151.219L15.938 156.98C15.986 157.076 16.034 157.124 16.1301 157.076L22.5149 155.012C22.7549 154.916 22.8989 155.012 22.9949 155.252ZM16.8021 121.359L16.7541 123.376C16.7061 123.664 16.6101 123.76 16.3701 123.712L0.384051 123.28C0.0960137 123.28 0 123.136 0 122.896L0.0480054 120.927C0.0480054 120.687 0.144017 120.543 0.336041 120.447L6.48083 116.895C6.52883 116.895 6.57684 116.847 6.57684 116.799C6.57684 116.751 6.57684 116.703 6.52883 116.703L0.624081 112.766C0.480063 112.67 0.384051 112.526 0.384051 112.286L0.432056 110.27C0.432056 109.982 0.576072 109.886 0.816103 109.886L16.8021 110.318C17.0902 110.318 17.1862 110.462 17.1862 110.702L17.1382 112.718C17.1382 113.006 16.9942 113.102 16.7541 113.102L5.42469 112.766C5.32868 112.766 5.28067 112.766 5.28067 112.814C5.24673 112.848 5.26079 112.858 5.28891 112.878C5.30056 112.886 5.31462 112.896 5.32868 112.91L9.88926 115.887C10.0333 115.983 10.1293 116.127 10.1293 116.367L10.0813 117.279C10.0813 117.519 9.98528 117.663 9.79325 117.759L5.04064 120.495C4.94463 120.495 4.94463 120.543 4.94463 120.591C4.99264 120.639 5.04064 120.639 5.08865 120.639L16.4181 120.975C16.7061 120.975 16.8021 121.119 16.8021 121.359ZM17.3782 132.161L19.2025 142.578C19.2505 142.818 19.1544 142.962 18.9624 143.01L3.21641 145.747C2.97638 145.747 2.83236 145.651 2.78436 145.411L0.960123 134.993C0.960123 134.753 1.05613 134.609 1.29616 134.561L2.88037 134.273C3.1204 134.273 3.26442 134.369 3.31242 134.609L4.7046 142.53C4.7046 142.626 4.75261 142.626 4.84862 142.626L9.21718 141.858C9.31319 141.858 9.31319 141.81 9.31319 141.714L8.40107 136.433C8.40107 136.193 8.49708 136.049 8.73711 136.001L10.3213 135.713C10.5613 135.713 10.7054 135.809 10.7534 136.049L11.6655 141.33C11.6655 141.426 11.7135 141.426 11.8095 141.426L16.3221 140.658C16.3701 140.61 16.4181 140.562 16.4181 140.466L15.0259 132.545C15.0259 132.305 15.1219 132.161 15.362 132.113L16.9462 131.825C17.1862 131.825 17.3302 131.921 17.3782 132.161ZM96.3963 118.671L121.359 143.634L138.69 160.965H158.276L100.285 102.973V79.1141H79.1141V101.389L96.3963 118.671ZM79.1141 160.917H101.389L117.327 144.979L95.0521 122.704L79.1141 138.642V160.917ZM120.111 97.7885L104.077 81.7544V101.389L160.917 158.228V138.642L142.29 120.015L158.228 104.029H135.953V81.7544L120.111 97.7885ZM164.709 137.058V164.709H137.058L120.015 147.667L102.973 164.709H75.3216V137.058L92.3638 120.015L75.3216 102.973V75.3216H102.973L120.111 92.4598L137.058 75.3216H164.709V102.973L147.667 120.015L164.709 137.058ZM139.746 79.0661H160.917V100.237H139.746V79.0661Z" fill="white"/>
</svg>