<svg xmlns="http://www.w3.org/2000/svg" width="121px" height="85px" viewBox="0 0 121 85" fill="none" aria-hidden="true"><defs><linearGradient class="cerosgradient" data-cerosgradient="true" id="CerosGradient_id6f9a1fdc9" gradientUnits="userSpaceOnUse" x1="50%" y1="100%" x2="50%" y2="0%"><stop offset="0%" stop-color="#d1d1d1"/><stop offset="100%" stop-color="#d1d1d1"/></linearGradient><linearGradient/></defs>
<path d="M15.6514 46.0947L2.84863 43.0332L7.46875 1.95312H53.002V14.9229H20.6611L18.6572 32.9023C19.7334 32.2715 21.3662 31.6035 23.5557 30.8984C25.7451 30.1562 28.1943 29.7852 30.9033 29.7852C34.8369 29.7852 38.3252 30.3975 41.3682 31.6221C44.4111 32.8467 46.9902 34.6279 49.1055 36.9658C51.2578 39.3037 52.8906 42.1611 54.0039 45.5381C55.1172 48.915 55.6738 52.7373 55.6738 57.0049C55.6738 60.6045 55.1172 64.0371 54.0039 67.3027C52.8906 70.5312 51.2021 73.4258 48.9385 75.9863C46.6748 78.5098 43.8359 80.4951 40.4219 81.9424C37.0078 83.3896 32.9629 84.1133 28.2871 84.1133C24.7988 84.1133 21.4219 83.5938 18.1562 82.5547C14.9277 81.5156 12.0146 79.9756 9.41699 77.9346C6.85645 75.8936 4.79688 73.4258 3.23828 70.5312C1.7168 67.5996 0.918945 64.2598 0.844727 60.5117H16.7646C16.9873 62.8125 17.5811 64.7979 18.5459 66.4678C19.5479 68.1006 20.8652 69.3623 22.498 70.2529C24.1309 71.1436 26.042 71.5889 28.2314 71.5889C30.2725 71.5889 32.0166 71.1992 33.4639 70.4199C34.9111 69.6406 36.0801 68.5645 36.9707 67.1914C37.8613 65.7812 38.5107 64.1484 38.9189 62.293C39.3643 60.4004 39.5869 58.3594 39.5869 56.1699C39.5869 53.9805 39.3271 51.9951 38.8076 50.2139C38.2881 48.4326 37.4902 46.8926 36.4141 45.5938C35.3379 44.2949 33.9648 43.293 32.2949 42.5879C30.6621 41.8828 28.751 41.5303 26.5615 41.5303C23.5928 41.5303 21.292 41.9941 19.6592 42.9219C18.0635 43.8496 16.7275 44.9072 15.6514 46.0947Z" fill="white"/>
<path d="M77.3828 70.8096H78.4404C82.8936 70.8096 86.7158 70.2715 89.9072 69.1953C93.1357 68.082 95.7891 66.4863 97.8672 64.4082C99.9453 62.3301 101.485 59.7881 102.487 56.7822C103.489 53.7393 103.99 50.2881 103.99 46.4287V31.0654C103.99 28.1338 103.693 25.5547 103.1 23.3281C102.543 21.1016 101.727 19.2646 100.65 17.8174C99.6113 16.333 98.3867 15.2197 96.9766 14.4775C95.6035 13.7354 94.082 13.3643 92.4121 13.3643C90.6309 13.3643 89.0537 13.8096 87.6807 14.7002C86.3076 15.5537 85.1387 16.7227 84.1738 18.207C83.2461 19.6914 82.5225 21.3984 82.0029 23.3281C81.5205 25.2207 81.2793 27.2061 81.2793 29.2842C81.2793 31.3623 81.5205 33.3477 82.0029 35.2402C82.4854 37.0957 83.209 38.7471 84.1738 40.1943C85.1387 41.6045 86.3447 42.7363 87.792 43.5898C89.2393 44.4062 90.9463 44.8145 92.9131 44.8145C94.8057 44.8145 96.4941 44.4619 97.9785 43.7568C99.5 43.0146 100.78 42.0498 101.819 40.8623C102.896 39.6748 103.712 38.3574 104.269 36.9102C104.862 35.4629 105.159 33.9971 105.159 32.5127L110.447 35.4072C110.447 38.0049 109.891 40.5654 108.777 43.0889C107.664 45.6123 106.105 47.9131 104.102 49.9912C102.135 52.0322 99.8525 53.665 97.2549 54.8896C94.6572 56.1143 91.874 56.7266 88.9053 56.7266C85.1201 56.7266 81.7617 56.04 78.8301 54.667C75.8984 53.2568 73.4121 51.3271 71.3711 48.8779C69.3672 46.3916 67.8457 43.4971 66.8066 40.1943C65.7676 36.8916 65.248 33.3105 65.248 29.4512C65.248 25.5176 65.8789 21.8252 67.1406 18.374C68.4395 14.9229 70.2764 11.8799 72.6514 9.24512C75.0635 6.61035 77.9395 4.55078 81.2793 3.06641C84.6562 1.54492 88.4043 0.78418 92.5234 0.78418C96.6426 0.78418 100.391 1.58203 103.768 3.17773C107.145 4.77344 110.039 7.03711 112.451 9.96875C114.863 12.8633 116.719 16.333 118.018 20.3779C119.354 24.4229 120.021 28.9131 120.021 33.8486V39.415C120.021 44.6846 119.446 49.583 118.296 54.1104C117.183 58.6377 115.494 62.7383 113.23 66.4121C111.004 70.0488 108.221 73.166 104.881 75.7637C101.578 78.3613 97.7373 80.3467 93.3584 81.7197C88.9795 83.0928 84.0811 83.7793 78.6631 83.7793H77.3828V70.8096Z" fill="white"/>
</svg>