<svg xmlns="http://www.w3.org/2000/svg" width="43px" height="14px" viewBox="0 0 43 14" fill="none" aria-hidden="true"><defs><linearGradient class="cerosgradient" data-cerosgradient="true" id="CerosGradient_idea8afd010" gradientUnits="userSpaceOnUse" x1="50%" y1="100%" x2="50%" y2="0%"><stop offset="0%" stop-color="#000000"/><stop offset="100%" stop-color="#000000"/></linearGradient><linearGradient/></defs>
<path d="M3.94824 13H1.27637L1.29395 11.6201H3.94824C4.8623 11.6201 5.62402 11.4297 6.2334 11.0488C6.84277 10.6621 7.2998 10.123 7.60449 9.43164C7.91504 8.73438 8.07031 7.91992 8.07031 6.98828V6.20605C8.07031 5.47363 7.98242 4.82324 7.80664 4.25488C7.63086 3.68066 7.37305 3.19727 7.0332 2.80469C6.69336 2.40625 6.27734 2.10449 5.78516 1.89941C5.29883 1.69434 4.73926 1.5918 4.10645 1.5918H1.22363V0.203125H4.10645C4.94434 0.203125 5.70898 0.34375 6.40039 0.625C7.0918 0.900391 7.68652 1.30176 8.18457 1.8291C8.68848 2.35059 9.0752 2.9834 9.34473 3.72754C9.61426 4.46582 9.74902 5.29785 9.74902 6.22363V6.98828C9.74902 7.91406 9.61426 8.74902 9.34473 9.49316C9.0752 10.2314 8.68555 10.8613 8.17578 11.3828C7.67188 11.9043 7.0625 12.3057 6.34766 12.5869C5.63867 12.8623 4.83887 13 3.94824 13ZM2.18164 0.203125V13H0.485352V0.203125H2.18164Z" fill="white" style="fill:url(#CerosGradient_idea8afd010);"/>
<path d="M16.8418 1.33691L12.6055 13H10.874L15.752 0.203125H16.8682L16.8418 1.33691ZM20.3926 13L16.1475 1.33691L16.1211 0.203125H17.2373L22.1328 13H20.3926ZM20.1729 8.2627V9.65137H12.9834V8.2627H20.1729Z" fill="white" style="fill:url(#CerosGradient_idea8afd010);"/>
<path d="M23.6094 0.203125L26.9316 6.62793L30.2627 0.203125H32.1875L27.7754 8.21875V13H26.0791V8.21875L21.667 0.203125H23.6094Z" fill="white" style="fill:url(#CerosGradient_idea8afd010);"/>
<path d="M40.5107 9.76562C40.5107 9.4668 40.4639 9.20312 40.3701 8.97461C40.2822 8.74023 40.124 8.5293 39.8955 8.3418C39.6729 8.1543 39.3623 7.97559 38.9639 7.80566C38.5713 7.63574 38.0732 7.46289 37.4697 7.28711C36.8369 7.09961 36.2656 6.8916 35.7559 6.66309C35.2461 6.42871 34.8096 6.16211 34.4463 5.86328C34.083 5.56445 33.8047 5.22168 33.6113 4.83496C33.418 4.44824 33.3213 4.00586 33.3213 3.50781C33.3213 3.00977 33.4238 2.5498 33.6289 2.12793C33.834 1.70605 34.127 1.33984 34.5078 1.0293C34.8945 0.712891 35.3545 0.466797 35.8877 0.291016C36.4209 0.115234 37.0156 0.0273438 37.6719 0.0273438C38.6328 0.0273438 39.4473 0.211914 40.1152 0.581055C40.7891 0.944336 41.3018 1.42188 41.6533 2.01367C42.0049 2.59961 42.1807 3.22656 42.1807 3.89453H40.4932C40.4932 3.41406 40.3906 2.98926 40.1855 2.62012C39.9805 2.24512 39.6699 1.95215 39.2539 1.74121C38.8379 1.52441 38.3105 1.41602 37.6719 1.41602C37.0684 1.41602 36.5703 1.50684 36.1777 1.68848C35.7852 1.87012 35.4922 2.11621 35.2988 2.42676C35.1113 2.7373 35.0176 3.0918 35.0176 3.49023C35.0176 3.75977 35.0732 4.00586 35.1846 4.22852C35.3018 4.44531 35.4805 4.64746 35.7207 4.83496C35.9668 5.02246 36.2773 5.19531 36.6523 5.35352C37.0332 5.51172 37.4873 5.66406 38.0146 5.81055C38.7412 6.01562 39.3682 6.24414 39.8955 6.49609C40.4229 6.74805 40.8564 7.03223 41.1963 7.34863C41.542 7.65918 41.7969 8.01367 41.9609 8.41211C42.1309 8.80469 42.2158 9.25 42.2158 9.74805C42.2158 10.2695 42.1104 10.7412 41.8994 11.1631C41.6885 11.585 41.3867 11.9453 40.9941 12.2441C40.6016 12.543 40.1299 12.7744 39.5791 12.9385C39.0342 13.0967 38.4248 13.1758 37.751 13.1758C37.1592 13.1758 36.5762 13.0938 36.002 12.9297C35.4336 12.7656 34.915 12.5195 34.4463 12.1914C33.9834 11.8633 33.6113 11.459 33.3301 10.9785C33.0547 10.4922 32.917 9.92969 32.917 9.29102H34.6045C34.6045 9.73047 34.6895 10.1084 34.8594 10.4248C35.0293 10.7354 35.2607 10.9932 35.5537 11.1982C35.8525 11.4033 36.1895 11.5557 36.5645 11.6553C36.9453 11.749 37.3408 11.7959 37.751 11.7959C38.3428 11.7959 38.8438 11.7139 39.2539 11.5498C39.6641 11.3857 39.9746 11.1514 40.1855 10.8467C40.4023 10.542 40.5107 10.1816 40.5107 9.76562Z" fill="white" style="fill:url(#CerosGradient_idea8afd010);"/>
</svg>