<svg xmlns="http://www.w3.org/2000/svg" width="117px" height="85px" viewBox="0 0 117 85" fill="none" aria-hidden="true"><defs><linearGradient class="cerosgradient" data-cerosgradient="true" id="CerosGradient_id6bf725a71" gradientUnits="userSpaceOnUse" x1="50%" y1="100%" x2="50%" y2="0%"><stop offset="0%" stop-color="#d1d1d1"/><stop offset="100%" stop-color="#d1d1d1"/></linearGradient><linearGradient/></defs>
<path d="M35.6426 1.78613V83H19.6113V20.2666L0.351562 26.3896V13.7539L33.917 1.78613H35.6426Z" fill="black"/>
<path d="M116.578 35.3516V49.3789C116.578 55.4648 115.929 60.7158 114.63 65.1318C113.331 69.5107 111.457 73.1104 109.008 75.9307C106.596 78.7139 103.72 80.7734 100.38 82.1094C97.04 83.4453 93.3291 84.1133 89.2471 84.1133C85.9814 84.1133 82.9385 83.7051 80.1182 82.8887C77.2979 82.0352 74.7559 80.7178 72.4922 78.9365C70.2656 77.1553 68.3359 74.9102 66.7031 72.2012C65.1074 69.4551 63.8828 66.1895 63.0293 62.4043C62.1758 58.6191 61.749 54.2773 61.749 49.3789V35.3516C61.749 29.2656 62.3984 24.0518 63.6973 19.71C65.0332 15.3311 66.9072 11.75 69.3193 8.9668C71.7686 6.18359 74.6631 4.14258 78.0029 2.84375C81.3428 1.50781 85.0537 0.839844 89.1357 0.839844C92.4014 0.839844 95.4258 1.2666 98.209 2.12012C101.029 2.93652 103.571 4.2168 105.835 5.96094C108.099 7.70508 110.028 9.9502 111.624 12.6963C113.22 15.4053 114.444 18.6523 115.298 22.4375C116.151 26.1855 116.578 30.4902 116.578 35.3516ZM100.491 51.4941V33.1807C100.491 30.249 100.324 27.6885 99.9902 25.499C99.6934 23.3096 99.2295 21.4541 98.5986 19.9326C97.9678 18.374 97.1885 17.1123 96.2607 16.1475C95.333 15.1826 94.2754 14.4775 93.0879 14.0322C91.9004 13.5869 90.583 13.3643 89.1357 13.3643C87.3174 13.3643 85.7031 13.7168 84.293 14.4219C82.9199 15.127 81.751 16.2588 80.7861 17.8174C79.8213 19.3389 79.0791 21.3799 78.5596 23.9404C78.0771 26.4639 77.8359 29.5439 77.8359 33.1807V51.4941C77.8359 54.4258 77.9844 57.0049 78.2812 59.2314C78.6152 61.458 79.0977 63.3691 79.7285 64.9648C80.3965 66.5234 81.1758 67.8037 82.0664 68.8057C82.9941 69.7705 84.0518 70.4756 85.2393 70.9209C86.4639 71.3662 87.7998 71.5889 89.2471 71.5889C91.0283 71.5889 92.6055 71.2363 93.9785 70.5312C95.3887 69.7891 96.5762 68.6387 97.541 67.0801C98.543 65.4844 99.2852 63.4062 99.7676 60.8457C100.25 58.2852 100.491 55.168 100.491 51.4941Z" fill="black"/>
</svg>