<svg xmlns="http://www.w3.org/2000/svg" width="76px" height="14px" viewBox="0 0 76 14" fill="none" aria-hidden="true"><defs><linearGradient class="cerosgradient" data-cerosgradient="true" id="CerosGradient_idd3c4b8930" gradientUnits="userSpaceOnUse" x1="50%" y1="100%" x2="50%" y2="0%"><stop offset="0%" stop-color="#d1d1d1"/><stop offset="100%" stop-color="#d1d1d1"/></linearGradient><linearGradient/></defs>
<path d="M1.02148 0.203125H2.66504L6.85742 10.6357L11.041 0.203125H12.6934L7.49023 13H6.20703L1.02148 0.203125ZM0.485352 0.203125H1.93555L2.17285 8.00781V13H0.485352V0.203125ZM11.7705 0.203125H13.2207V13H11.5332V8.00781L11.7705 0.203125Z" fill="white"/>
<path d="M18.0195 0.203125V13H16.3232V0.203125H18.0195Z" fill="white"/>
<path d="M30.9482 0.203125V13H29.2432L22.8008 3.12988V13H21.1045V0.203125H22.8008L29.2695 10.0996V0.203125H30.9482Z" fill="white"/>
<path d="M41.2754 0.203125H42.9629V8.86035C42.9629 9.82129 42.749 10.6211 42.3213 11.2598C41.8936 11.8984 41.3252 12.3789 40.6162 12.7012C39.9131 13.0176 39.1484 13.1758 38.3223 13.1758C37.4551 13.1758 36.6699 13.0176 35.9668 12.7012C35.2695 12.3789 34.7158 11.8984 34.3057 11.2598C33.9014 10.6211 33.6992 9.82129 33.6992 8.86035V0.203125H35.3779V8.86035C35.3779 9.52832 35.501 10.0791 35.7471 10.5127C35.9932 10.9463 36.3359 11.2686 36.7754 11.4795C37.2207 11.6904 37.7363 11.7959 38.3223 11.7959C38.9141 11.7959 39.4297 11.6904 39.8691 11.4795C40.3145 11.2686 40.6602 10.9463 40.9062 10.5127C41.1523 10.0791 41.2754 9.52832 41.2754 8.86035V0.203125Z" fill="white"/>
<path d="M50.3545 0.203125V13H48.6846V0.203125H50.3545ZM54.4678 0.203125V1.5918H44.5801V0.203125H54.4678Z" fill="white"/>
<path d="M64.4961 11.6201V13H57.7197V11.6201H64.4961ZM58.0625 0.203125V13H56.3662V0.203125H58.0625ZM63.5996 5.70508V7.08496H57.7197V5.70508H63.5996ZM64.4082 0.203125V1.5918H57.7197V0.203125H64.4082Z" fill="white"/>
<path d="M73.417 9.76562C73.417 9.4668 73.3701 9.20312 73.2764 8.97461C73.1885 8.74023 73.0303 8.5293 72.8018 8.3418C72.5791 8.1543 72.2686 7.97559 71.8701 7.80566C71.4775 7.63574 70.9795 7.46289 70.376 7.28711C69.7432 7.09961 69.1719 6.8916 68.6621 6.66309C68.1523 6.42871 67.7158 6.16211 67.3525 5.86328C66.9893 5.56445 66.7109 5.22168 66.5176 4.83496C66.3242 4.44824 66.2275 4.00586 66.2275 3.50781C66.2275 3.00977 66.3301 2.5498 66.5352 2.12793C66.7402 1.70605 67.0332 1.33984 67.4141 1.0293C67.8008 0.712891 68.2607 0.466797 68.7939 0.291016C69.3271 0.115234 69.9219 0.0273438 70.5781 0.0273438C71.5391 0.0273438 72.3535 0.211914 73.0215 0.581055C73.6953 0.944336 74.208 1.42188 74.5596 2.01367C74.9111 2.59961 75.0869 3.22656 75.0869 3.89453H73.3994C73.3994 3.41406 73.2969 2.98926 73.0918 2.62012C72.8867 2.24512 72.5762 1.95215 72.1602 1.74121C71.7441 1.52441 71.2168 1.41602 70.5781 1.41602C69.9746 1.41602 69.4766 1.50684 69.084 1.68848C68.6914 1.87012 68.3984 2.11621 68.2051 2.42676C68.0176 2.7373 67.9238 3.0918 67.9238 3.49023C67.9238 3.75977 67.9795 4.00586 68.0908 4.22852C68.208 4.44531 68.3867 4.64746 68.627 4.83496C68.873 5.02246 69.1836 5.19531 69.5586 5.35352C69.9395 5.51172 70.3936 5.66406 70.9209 5.81055C71.6475 6.01562 72.2744 6.24414 72.8018 6.49609C73.3291 6.74805 73.7627 7.03223 74.1025 7.34863C74.4482 7.65918 74.7031 8.01367 74.8672 8.41211C75.0371 8.80469 75.1221 9.25 75.1221 9.74805C75.1221 10.2695 75.0166 10.7412 74.8057 11.1631C74.5947 11.585 74.293 11.9453 73.9004 12.2441C73.5078 12.543 73.0361 12.7744 72.4854 12.9385C71.9404 13.0967 71.3311 13.1758 70.6572 13.1758C70.0654 13.1758 69.4824 13.0938 68.9082 12.9297C68.3398 12.7656 67.8213 12.5195 67.3525 12.1914C66.8896 11.8633 66.5176 11.459 66.2363 10.9785C65.9609 10.4922 65.8232 9.92969 65.8232 9.29102H67.5107C67.5107 9.73047 67.5957 10.1084 67.7656 10.4248C67.9355 10.7354 68.167 10.9932 68.46 11.1982C68.7588 11.4033 69.0957 11.5557 69.4707 11.6553C69.8516 11.749 70.2471 11.7959 70.6572 11.7959C71.249 11.7959 71.75 11.7139 72.1602 11.5498C72.5703 11.3857 72.8809 11.1514 73.0918 10.8467C73.3086 10.542 73.417 10.1816 73.417 9.76562Z" fill="white"/>
</svg>