<svg xmlns="http://www.w3.org/2000/svg" width="123px" height="85px" viewBox="0 0 123 85" fill="none" aria-hidden="true"><defs><linearGradient class="cerosgradient" data-cerosgradient="true" id="CerosGradient_ida06ae62fc" gradientUnits="userSpaceOnUse" x1="50%" y1="100%" x2="50%" y2="0%"><stop offset="0%" stop-color="#d1d1d1"/><stop offset="100%" stop-color="#d1d1d1"/></linearGradient><linearGradient/></defs>
<path d="M58.0078 70.4756V83H2.56641V72.3125L28.7842 44.2021C31.4189 41.2705 33.4971 38.6914 35.0186 36.4648C36.54 34.2012 37.6348 32.1787 38.3027 30.3975C39.0078 28.5791 39.3604 26.8535 39.3604 25.2207C39.3604 22.7715 38.9521 20.6748 38.1357 18.9307C37.3193 17.1494 36.1133 15.7764 34.5176 14.8115C32.959 13.8467 31.0293 13.3643 28.7285 13.3643C26.2793 13.3643 24.1641 13.958 22.3828 15.1455C20.6387 16.333 19.3027 17.9844 18.375 20.0996C17.4844 22.2148 17.0391 24.6084 17.0391 27.2803H0.952148C0.952148 22.4561 2.10254 18.04 4.40332 14.0322C6.7041 9.9873 9.95117 6.77734 14.1445 4.40234C18.3379 1.99023 23.3105 0.78418 29.0625 0.78418C34.7402 0.78418 39.5273 1.71191 43.4238 3.56738C47.3574 5.38574 50.3262 8.02051 52.3301 11.4717C54.3711 14.8857 55.3916 18.9678 55.3916 23.7178C55.3916 26.3896 54.9648 29.0059 54.1113 31.5664C53.2578 34.0898 52.0332 36.6133 50.4375 39.1367C48.8789 41.623 46.9863 44.1465 44.7598 46.707C42.5332 49.2676 40.0654 51.9209 37.3564 54.667L23.2734 70.4756H58.0078Z" fill="black"/>
<path d="M122.578 35.3516V49.3789C122.578 55.4648 121.929 60.7158 120.63 65.1318C119.331 69.5107 117.457 73.1104 115.008 75.9307C112.596 78.7139 109.72 80.7734 106.38 82.1094C103.04 83.4453 99.3291 84.1133 95.2471 84.1133C91.9814 84.1133 88.9385 83.7051 86.1182 82.8887C83.2979 82.0352 80.7559 80.7178 78.4922 78.9365C76.2656 77.1553 74.3359 74.9102 72.7031 72.2012C71.1074 69.4551 69.8828 66.1895 69.0293 62.4043C68.1758 58.6191 67.749 54.2773 67.749 49.3789V35.3516C67.749 29.2656 68.3984 24.0518 69.6973 19.71C71.0332 15.3311 72.9072 11.75 75.3193 8.9668C77.7686 6.18359 80.6631 4.14258 84.0029 2.84375C87.3428 1.50781 91.0537 0.839844 95.1357 0.839844C98.4014 0.839844 101.426 1.2666 104.209 2.12012C107.029 2.93652 109.571 4.2168 111.835 5.96094C114.099 7.70508 116.028 9.9502 117.624 12.6963C119.22 15.4053 120.444 18.6523 121.298 22.4375C122.151 26.1855 122.578 30.4902 122.578 35.3516ZM106.491 51.4941V33.1807C106.491 30.249 106.324 27.6885 105.99 25.499C105.693 23.3096 105.229 21.4541 104.599 19.9326C103.968 18.374 103.188 17.1123 102.261 16.1475C101.333 15.1826 100.275 14.4775 99.0879 14.0322C97.9004 13.5869 96.583 13.3643 95.1357 13.3643C93.3174 13.3643 91.7031 13.7168 90.293 14.4219C88.9199 15.127 87.751 16.2588 86.7861 17.8174C85.8213 19.3389 85.0791 21.3799 84.5596 23.9404C84.0771 26.4639 83.8359 29.5439 83.8359 33.1807V51.4941C83.8359 54.4258 83.9844 57.0049 84.2812 59.2314C84.6152 61.458 85.0977 63.3691 85.7285 64.9648C86.3965 66.5234 87.1758 67.8037 88.0664 68.8057C88.9941 69.7705 90.0518 70.4756 91.2393 70.9209C92.4639 71.3662 93.7998 71.5889 95.2471 71.5889C97.0283 71.5889 98.6055 71.2363 99.9785 70.5312C101.389 69.7891 102.576 68.6387 103.541 67.0801C104.543 65.4844 105.285 63.4062 105.768 60.8457C106.25 58.2852 106.491 55.168 106.491 51.4941Z" fill="black"/>
</svg>