<svg xmlns="http://www.w3.org/2000/svg" width="432px" height="184px" viewBox="0 0 432 184" fill="none" aria-hidden="true"><defs><linearGradient class="cerosgradient" data-cerosgradient="true" id="CerosGradient_idbd4e17ab2" gradientUnits="userSpaceOnUse" x1="50%" y1="100%" x2="50%" y2="0%"><stop offset="0%" stop-color="#d1d1d1"/><stop offset="100%" stop-color="#d1d1d1"/></linearGradient><linearGradient/></defs>
<path d="M151.736 87.3592V95.8015C151.736 109.342 149.901 121.495 146.23 132.262C142.56 143.029 137.38 152.206 130.692 159.791C124.003 167.296 116.01 173.046 106.711 177.043C97.4936 181.04 87.2568 183.038 76.0005 183.038C64.8257 183.038 54.5889 181.04 45.2902 177.043C36.073 173.046 28.0794 167.296 21.3092 159.791C14.5391 152.206 9.27797 143.029 5.52585 132.262C1.8553 121.495 0.0200195 109.342 0.0200195 95.8015V87.3592C0.0200195 73.7373 1.8553 61.5837 5.52585 50.8983C9.1964 40.1314 14.376 30.955 21.0645 23.3692C27.8347 15.7834 35.8283 9.99206 45.0455 5.99524C54.3442 1.99841 64.581 0 75.7558 0C87.0121 0 97.2489 1.99841 106.466 5.99524C115.765 9.99206 123.758 15.7834 130.447 23.3692C137.217 30.955 142.438 40.1314 146.108 50.8983C149.86 61.5837 151.736 73.7373 151.736 87.3592ZM114.664 95.8015V87.1145C114.664 77.6526 113.807 69.3327 112.094 62.1547C110.381 54.9767 107.853 48.9407 104.508 44.0466C101.164 39.1526 97.0858 35.482 92.2733 33.035C87.4608 30.5064 81.9549 29.2421 75.7558 29.2421C69.5566 29.2421 64.0508 30.5064 59.2383 33.035C54.5074 35.482 50.4697 39.1526 47.1255 44.0466C43.8627 48.9407 41.3749 54.9767 39.662 62.1547C37.9491 69.3327 37.0926 77.6526 37.0926 87.1145V95.8015C37.0926 105.182 37.9491 113.502 39.662 120.761C41.3749 127.939 43.9035 134.016 47.2478 138.992C50.5921 143.886 54.6705 147.597 59.483 150.126C64.2955 152.654 69.8013 153.919 76.0005 153.919C82.1996 153.919 87.7055 152.654 92.518 150.126C97.3305 147.597 101.368 143.886 104.631 138.992C107.894 134.016 110.381 127.939 112.094 120.761C113.807 113.502 114.664 105.182 114.664 95.8015Z" fill="white"/>
<path d="M214.87 2.44704V180.591H178.164V2.44704H214.87ZM285.834 78.5499V107.18H204.837V78.5499H285.834ZM294.398 2.44704V31.1997H204.837V2.44704H294.398Z" fill="white"/>
<path d="M352.393 2.44704V180.591H315.688V2.44704H352.393ZM423.357 78.5499V107.18H342.36V78.5499H423.357ZM431.922 2.44704V31.1997H342.36V2.44704H431.922Z" fill="white"/>
</svg>