<svg xmlns="http://www.w3.org/2000/svg" width="479px" height="85px" viewBox="0 0 479 85" fill="none" aria-hidden="true"><defs><linearGradient class="cerosgradient" data-cerosgradient="true" id="CerosGradient_id1f6eddf3b" gradientUnits="userSpaceOnUse" x1="50%" y1="100%" x2="50%" y2="0%"><stop offset="0%" stop-color="#d1d1d1"/><stop offset="100%" stop-color="#d1d1d1"/></linearGradient><linearGradient/></defs>
<path d="M45.8604 36.9414V58.6934C45.1605 59.7292 43.9567 60.877 42.249 62.1367C40.5413 63.3965 38.2458 64.5023 35.3623 65.4541C32.4788 66.3779 28.8955 66.8398 24.6123 66.8398C21.029 66.8398 17.7396 66.196 14.7441 64.9082C11.7487 63.6204 9.14518 61.7588 6.93359 59.3232C4.75 56.8597 3.05632 53.9062 1.85254 50.4629C0.676758 47.0195 0.0888672 43.1562 0.0888672 38.873V31.4824C0.0888672 27.2832 0.634766 23.5039 1.72656 20.1445C2.81836 16.7572 4.40007 13.8597 6.47168 11.4521C8.54329 9.0446 11.0348 7.21094 13.9463 5.95117C16.8857 4.66341 20.1751 4.01953 23.8145 4.01953C28.3496 4.01953 32.1709 4.80339 35.2783 6.37109C38.3857 7.9388 40.8073 10.0944 42.543 12.8379C44.3066 15.5534 45.3984 18.6328 45.8184 22.0762H40.6533C40.2614 19.6406 39.4495 17.401 38.2178 15.3574C36.986 13.2858 35.1943 11.6201 32.8428 10.3604C30.5192 9.10059 27.5098 8.4707 23.8145 8.4707C20.847 8.4707 18.2015 9.0166 15.8779 10.1084C13.5824 11.2002 11.6507 12.7539 10.083 14.7695C8.5153 16.7852 7.32552 19.2067 6.51367 22.0342C5.70182 24.8337 5.2959 27.9551 5.2959 31.3984V38.873C5.2959 42.4564 5.74382 45.6898 6.63965 48.5732C7.56348 51.4567 8.87923 53.9342 10.5869 56.0059C12.2946 58.0775 14.3382 59.6732 16.7178 60.793C19.0973 61.8848 21.7428 62.4307 24.6543 62.4307C27.7617 62.4307 30.4072 62.1367 32.5908 61.5488C34.7744 60.9609 36.5241 60.2611 37.8398 59.4492C39.1836 58.6094 40.1494 57.8255 40.7373 57.0977V41.3506H24.3184V36.9414H45.8604Z" fill="white"/>
<path d="M77.0186 66.8398C74.0511 66.8398 71.3216 66.2939 68.8301 65.2021C66.3665 64.1104 64.2109 62.5706 62.3633 60.583C60.5436 58.5954 59.1299 56.2438 58.1221 53.5283C57.1423 50.7848 56.6523 47.7894 56.6523 44.542V42.7363C56.6523 39.237 57.1702 36.0736 58.2061 33.2461C59.2419 30.4186 60.6696 27.9971 62.4893 25.9814C64.3089 23.9658 66.3805 22.4261 68.7041 21.3623C71.0557 20.2705 73.5192 19.7246 76.0947 19.7246C78.9782 19.7246 81.5397 20.2425 83.7793 21.2783C86.0189 22.2861 87.8945 23.7279 89.4062 25.6035C90.946 27.4512 92.1077 29.6488 92.8916 32.1963C93.6755 34.7158 94.0674 37.5013 94.0674 40.5527V43.6182H59.6758V39.335H89.0703V38.7471C89.0143 36.1995 88.4964 33.82 87.5166 31.6084C86.5648 29.3688 85.137 27.5492 83.2334 26.1494C81.3298 24.7497 78.9502 24.0498 76.0947 24.0498C73.9671 24.0498 72.0075 24.4977 70.2158 25.3936C68.4521 26.2894 66.9264 27.5771 65.6387 29.2568C64.3789 30.9085 63.3991 32.8822 62.6992 35.1777C62.0273 37.4453 61.6914 39.9648 61.6914 42.7363V44.542C61.6914 47.0615 62.0553 49.4131 62.7832 51.5967C63.5391 53.7523 64.6029 55.6559 65.9746 57.3076C67.3743 58.9593 69.026 60.2471 70.9297 61.1709C72.8333 62.0947 74.9329 62.5566 77.2285 62.5566C79.916 62.5566 82.2956 62.0667 84.3672 61.0869C86.4388 60.0791 88.3005 58.4974 89.9521 56.3418L93.1016 58.7773C92.1217 60.2331 90.89 61.5768 89.4062 62.8086C87.9505 64.0404 86.2008 65.0202 84.1572 65.748C82.1136 66.4759 79.734 66.8398 77.0186 66.8398Z" fill="white"/>
<path d="M121.152 20.5645V24.6797H98.3926V20.5645H121.152ZM106.749 8.89062H111.746V54.9561C111.746 57.0557 112.026 58.6374 112.586 59.7012C113.146 60.765 113.874 61.4788 114.77 61.8428C115.665 62.2067 116.631 62.3887 117.667 62.3887C118.423 62.3887 119.151 62.3467 119.851 62.2627C120.55 62.1507 121.18 62.0387 121.74 61.9268L121.95 66.168C121.334 66.3639 120.536 66.5179 119.557 66.6299C118.577 66.7699 117.597 66.8398 116.617 66.8398C114.686 66.8398 112.978 66.4899 111.494 65.79C110.01 65.0622 108.849 63.8304 108.009 62.0947C107.169 60.3311 106.749 57.9375 106.749 54.9141V8.89062Z" fill="white"/>
<path d="M157.686 28.0811V66H152.688V20.5645H157.56L157.686 28.0811ZM173.769 20.2285L173.643 24.8477C173.083 24.7637 172.537 24.6937 172.005 24.6377C171.473 24.5817 170.899 24.5537 170.283 24.5537C168.1 24.5537 166.182 24.9596 164.53 25.7715C162.907 26.5553 161.535 27.6611 160.415 29.0889C159.295 30.4886 158.441 32.1403 157.854 34.0439C157.266 35.9196 156.93 37.9352 156.846 40.0908L154.998 40.8047C154.998 37.8372 155.306 35.0798 155.922 32.5322C156.538 29.9847 157.476 27.7591 158.735 25.8555C160.023 23.9238 161.633 22.4261 163.564 21.3623C165.524 20.2705 167.82 19.7246 170.451 19.7246C171.095 19.7246 171.725 19.7806 172.341 19.8926C172.985 19.9766 173.461 20.0885 173.769 20.2285Z" fill="white"/>
<path d="M198.376 66.8398C195.409 66.8398 192.679 66.2939 190.188 65.2021C187.724 64.1104 185.568 62.5706 183.721 60.583C181.901 58.5954 180.487 56.2438 179.479 53.5283C178.5 50.7848 178.01 47.7894 178.01 44.542V42.7363C178.01 39.237 178.528 36.0736 179.563 33.2461C180.599 30.4186 182.027 27.9971 183.847 25.9814C185.666 23.9658 187.738 22.4261 190.062 21.3623C192.413 20.2705 194.877 19.7246 197.452 19.7246C200.336 19.7246 202.897 20.2425 205.137 21.2783C207.376 22.2861 209.252 23.7279 210.764 25.6035C212.303 27.4512 213.465 29.6488 214.249 32.1963C215.033 34.7158 215.425 37.5013 215.425 40.5527V43.6182H181.033V39.335H210.428V38.7471C210.372 36.1995 209.854 33.82 208.874 31.6084C207.922 29.3688 206.494 27.5492 204.591 26.1494C202.687 24.7497 200.308 24.0498 197.452 24.0498C195.325 24.0498 193.365 24.4977 191.573 25.3936C189.81 26.2894 188.284 27.5771 186.996 29.2568C185.736 30.9085 184.757 32.8822 184.057 35.1777C183.385 37.4453 183.049 39.9648 183.049 42.7363V44.542C183.049 47.0615 183.413 49.4131 184.141 51.5967C184.896 53.7523 185.96 55.6559 187.332 57.3076C188.732 58.9593 190.383 60.2471 192.287 61.1709C194.191 62.0947 196.29 62.5566 198.586 62.5566C201.273 62.5566 203.653 62.0667 205.725 61.0869C207.796 60.0791 209.658 58.4974 211.31 56.3418L214.459 58.7773C213.479 60.2331 212.247 61.5768 210.764 62.8086C209.308 64.0404 207.558 65.0202 205.515 65.748C203.471 66.4759 201.091 66.8398 198.376 66.8398Z" fill="white"/>
<path d="M252.966 57.8535V34.4219C252.966 32.2663 252.518 30.4046 251.622 28.8369C250.726 27.2692 249.41 26.0654 247.675 25.2256C245.939 24.3857 243.798 23.9658 241.25 23.9658C238.898 23.9658 236.799 24.3857 234.951 25.2256C233.132 26.0374 231.69 27.1432 230.626 28.543C229.59 29.9147 229.072 31.4404 229.072 33.1201L224.033 33.0781C224.033 31.3704 224.453 29.7188 225.293 28.123C226.133 26.5273 227.323 25.0996 228.862 23.8398C230.402 22.5801 232.236 21.5863 234.363 20.8584C236.519 20.1025 238.884 19.7246 241.46 19.7246C244.707 19.7246 247.563 20.2705 250.026 21.3623C252.518 22.4541 254.464 24.0918 255.863 26.2754C257.263 28.459 257.963 31.2025 257.963 34.5059V56.4678C257.963 58.0355 258.075 59.6592 258.299 61.3389C258.551 63.0186 258.901 64.4043 259.349 65.4961V66H254.016C253.68 64.9922 253.414 63.7324 253.218 62.2207C253.05 60.681 252.966 59.2253 252.966 57.8535ZM254.142 39.5449L254.226 43.4082H244.357C241.782 43.4082 239.472 43.6462 237.429 44.1221C235.413 44.57 233.705 45.2419 232.306 46.1377C230.906 47.0055 229.828 48.0553 229.072 49.2871C228.344 50.5189 227.98 51.9186 227.98 53.4863C227.98 55.11 228.386 56.5938 229.198 57.9375C230.038 59.2812 231.214 60.359 232.726 61.1709C234.265 61.9548 236.085 62.3467 238.185 62.3467C240.984 62.3467 243.448 61.8288 245.575 60.793C247.731 59.7572 249.508 58.3994 250.908 56.7197C252.308 55.04 253.246 53.2064 253.722 51.2188L255.905 54.1162C255.541 55.516 254.869 56.9577 253.89 58.4414C252.938 59.8971 251.692 61.2689 250.152 62.5566C248.613 63.8164 246.793 64.8522 244.693 65.6641C242.622 66.4479 240.27 66.8398 237.639 66.8398C234.671 66.8398 232.082 66.2799 229.87 65.1602C227.687 64.0404 225.979 62.5146 224.747 60.583C223.543 58.6234 222.941 56.4118 222.941 53.9482C222.941 51.7087 223.417 49.707 224.369 47.9434C225.321 46.1517 226.693 44.64 228.484 43.4082C230.304 42.1484 232.488 41.1966 235.035 40.5527C237.611 39.8809 240.494 39.5449 243.686 39.5449H254.142Z" fill="white"/>
<path d="M300.963 57.1816V1.5H306.002V66H301.299L300.963 57.1816ZM269.427 43.7441V42.8623C269.427 39.335 269.833 36.1576 270.645 33.3301C271.456 30.4746 272.618 28.0391 274.13 26.0234C275.67 23.9798 277.517 22.4261 279.673 21.3623C281.828 20.2705 284.264 19.7246 286.979 19.7246C289.639 19.7246 291.991 20.1585 294.034 21.0264C296.078 21.8942 297.827 23.14 299.283 24.7637C300.767 26.3874 301.957 28.319 302.853 30.5586C303.776 32.7982 304.448 35.2897 304.868 38.0332V49.2451C304.532 51.8206 303.916 54.1862 303.021 56.3418C302.125 58.4694 300.935 60.3311 299.451 61.9268C297.967 63.4945 296.176 64.7122 294.076 65.5801C292.005 66.4199 289.611 66.8398 286.896 66.8398C284.208 66.8398 281.786 66.2799 279.631 65.1602C277.475 64.0404 275.642 62.4587 274.13 60.415C272.618 58.3434 271.456 55.8939 270.645 53.0664C269.833 50.2389 269.427 47.1315 269.427 43.7441ZM274.466 42.8623V43.7441C274.466 46.4036 274.732 48.8672 275.264 51.1348C275.796 53.4023 276.607 55.376 277.699 57.0557C278.791 58.7354 280.177 60.0511 281.856 61.0029C283.536 61.9548 285.524 62.4307 287.819 62.4307C290.703 62.4307 293.124 61.8848 295.084 60.793C297.044 59.6732 298.611 58.2035 299.787 56.3838C300.963 54.5361 301.817 52.5205 302.349 50.3369V37.2773C302.013 35.7936 301.523 34.2819 300.879 32.7422C300.235 31.2025 299.353 29.7887 298.233 28.501C297.142 27.1852 295.742 26.1354 294.034 25.3516C292.354 24.5397 290.311 24.1338 287.903 24.1338C285.58 24.1338 283.578 24.6097 281.898 25.5615C280.219 26.5133 278.819 27.8431 277.699 29.5508C276.607 31.2305 275.796 33.2041 275.264 35.4717C274.732 37.7393 274.466 40.2028 274.466 42.8623Z" fill="white"/>
<path d="M332.709 61.4648L346.86 20.5645H352.277L333.045 73.3066C332.653 74.3424 332.149 75.4902 331.533 76.75C330.945 78.0098 330.161 79.2135 329.182 80.3613C328.23 81.5371 327.026 82.4889 325.57 83.2168C324.143 83.9727 322.393 84.3506 320.321 84.3506C319.789 84.3506 319.104 84.2806 318.264 84.1406C317.452 84.0286 316.864 83.9167 316.5 83.8047L316.458 79.5635C316.766 79.6475 317.214 79.7174 317.802 79.7734C318.39 79.8294 318.796 79.8574 319.02 79.8574C320.839 79.8574 322.365 79.5495 323.597 78.9336C324.856 78.3177 325.906 77.3939 326.746 76.1621C327.586 74.9583 328.328 73.4466 328.972 71.627L332.709 61.4648ZM319.481 20.5645L333.969 59.5752L335.312 64.8242L331.659 66.8818L314.022 20.5645H319.481Z" fill="white"/>
<path d="M389.734 66H384.737V14.9375C384.737 11.8301 385.269 9.21257 386.333 7.08496C387.425 4.95736 388.965 3.34766 390.952 2.25586C392.968 1.16406 395.361 0.618164 398.133 0.618164C399.001 0.618164 399.896 0.674154 400.82 0.786133C401.744 0.870117 402.64 1.05208 403.508 1.33203L403.13 5.57324C402.43 5.37728 401.716 5.2513 400.988 5.19531C400.288 5.11133 399.463 5.06934 398.511 5.06934C396.691 5.06934 395.123 5.46126 393.808 6.24512C392.492 7.00098 391.484 8.10677 390.784 9.5625C390.084 11.0182 389.734 12.8099 389.734 14.9375V66ZM400.568 20.5645V24.6797H377.221V20.5645H400.568Z" fill="white"/>
<path d="M406.825 43.9961V42.6104C406.825 39.307 407.301 36.2555 408.253 33.4561C409.205 30.6566 410.562 28.235 412.326 26.1914C414.118 24.1478 416.259 22.5661 418.751 21.4463C421.243 20.2985 424.014 19.7246 427.065 19.7246C430.145 19.7246 432.93 20.2985 435.422 21.4463C437.913 22.5661 440.055 24.1478 441.847 26.1914C443.638 28.235 445.01 30.6566 445.962 33.4561C446.914 36.2555 447.39 39.307 447.39 42.6104V43.9961C447.39 47.2995 446.914 50.3509 445.962 53.1504C445.01 55.9219 443.638 58.3294 441.847 60.373C440.083 62.4167 437.955 64.0124 435.464 65.1602C432.972 66.2799 430.201 66.8398 427.149 66.8398C424.07 66.8398 421.285 66.2799 418.793 65.1602C416.301 64.0124 414.16 62.4167 412.368 60.373C410.576 58.3294 409.205 55.9219 408.253 53.1504C407.301 50.3509 406.825 47.2995 406.825 43.9961ZM411.822 42.6104V43.9961C411.822 46.4876 412.158 48.8532 412.83 51.0928C413.502 53.3044 414.482 55.278 415.77 57.0137C417.057 58.7214 418.653 60.0651 420.557 61.0449C422.46 62.0247 424.658 62.5146 427.149 62.5146C429.613 62.5146 431.783 62.0247 433.658 61.0449C435.562 60.0651 437.158 58.7214 438.445 57.0137C439.733 55.278 440.699 53.3044 441.343 51.0928C442.015 48.8532 442.351 46.4876 442.351 43.9961V42.6104C442.351 40.1468 442.015 37.8092 441.343 35.5977C440.699 33.3861 439.719 31.4124 438.403 29.6768C437.116 27.9411 435.52 26.5693 433.616 25.5615C431.713 24.5537 429.529 24.0498 427.065 24.0498C424.602 24.0498 422.418 24.5537 420.515 25.5615C418.639 26.5693 417.043 27.9411 415.728 29.6768C414.44 31.4124 413.46 33.3861 412.788 35.5977C412.144 37.8092 411.822 40.1468 411.822 42.6104Z" fill="white"/>
<path d="M462.801 28.0811V66H457.804V20.5645H462.675L462.801 28.0811ZM478.884 20.2285L478.758 24.8477C478.198 24.7637 477.652 24.6937 477.12 24.6377C476.588 24.5817 476.014 24.5537 475.398 24.5537C473.215 24.5537 471.297 24.9596 469.646 25.7715C468.022 26.5553 466.65 27.6611 465.53 29.0889C464.41 30.4886 463.557 32.1403 462.969 34.0439C462.381 35.9196 462.045 37.9352 461.961 40.0908L460.113 40.8047C460.113 37.8372 460.421 35.0798 461.037 32.5322C461.653 29.9847 462.591 27.7591 463.851 25.8555C465.138 23.9238 466.748 22.4261 468.68 21.3623C470.639 20.2705 472.935 19.7246 475.566 19.7246C476.21 19.7246 476.84 19.7806 477.456 19.8926C478.1 19.9766 478.576 20.0885 478.884 20.2285Z" fill="white"/>
</svg>