<svg xmlns="http://www.w3.org/2000/svg" width="58px" height="14px" viewBox="0 0 58 14" fill="none" aria-hidden="true"><defs><linearGradient class="cerosgradient" data-cerosgradient="true" id="CerosGradient_id927b7ccdb" gradientUnits="userSpaceOnUse" x1="50%" y1="100%" x2="50%" y2="0%"><stop offset="0%" stop-color="#000000"/><stop offset="100%" stop-color="#000000"/></linearGradient><linearGradient/></defs>
<path d="M8.84375 5.70508V7.08496H1.91797V5.70508H8.84375ZM2.18164 0.203125V13H0.485352V0.203125H2.18164ZM10.3203 0.203125V13H8.63281V0.203125H10.3203Z" fill="white" style="fill:url(#CerosGradient_id927b7ccdb);"/>
<path d="M23.1875 6.19727V7.00586C23.1875 7.9668 23.0674 8.82812 22.8271 9.58984C22.5869 10.3516 22.2412 10.999 21.79 11.5322C21.3389 12.0654 20.7969 12.4727 20.1641 12.7539C19.5371 13.0352 18.834 13.1758 18.0547 13.1758C17.2988 13.1758 16.6045 13.0352 15.9717 12.7539C15.3447 12.4727 14.7998 12.0654 14.3369 11.5322C13.8799 10.999 13.5254 10.3516 13.2734 9.58984C13.0215 8.82812 12.8955 7.9668 12.8955 7.00586V6.19727C12.8955 5.23633 13.0186 4.37793 13.2646 3.62207C13.5166 2.86035 13.8711 2.21289 14.3281 1.67969C14.7852 1.14062 15.3271 0.730469 15.9541 0.449219C16.5869 0.167969 17.2812 0.0273438 18.0371 0.0273438C18.8164 0.0273438 19.5195 0.167969 20.1465 0.449219C20.7793 0.730469 21.3213 1.14062 21.7725 1.67969C22.2295 2.21289 22.5781 2.86035 22.8184 3.62207C23.0645 4.37793 23.1875 5.23633 23.1875 6.19727ZM21.5088 7.00586V6.17969C21.5088 5.41797 21.4297 4.74414 21.2715 4.1582C21.1191 3.57227 20.8936 3.08008 20.5947 2.68164C20.2959 2.2832 19.9297 1.98145 19.4961 1.77637C19.0684 1.57129 18.582 1.46875 18.0371 1.46875C17.5098 1.46875 17.0322 1.57129 16.6045 1.77637C16.1826 1.98145 15.8193 2.2832 15.5146 2.68164C15.2158 3.08008 14.9844 3.57227 14.8203 4.1582C14.6562 4.74414 14.5742 5.41797 14.5742 6.17969V7.00586C14.5742 7.77344 14.6562 8.45312 14.8203 9.04492C14.9844 9.63086 15.2188 10.126 15.5234 10.5303C15.834 10.9287 16.2002 11.2305 16.6221 11.4355C17.0498 11.6406 17.5273 11.7432 18.0547 11.7432C18.6055 11.7432 19.0947 11.6406 19.5225 11.4355C19.9502 11.2305 20.3105 10.9287 20.6035 10.5303C20.9023 10.126 21.1279 9.63086 21.2803 9.04492C21.4326 8.45312 21.5088 7.77344 21.5088 7.00586Z" fill="white" style="fill:url(#CerosGradient_id927b7ccdb);"/>
<path d="M33.0488 0.203125H34.7363V8.86035C34.7363 9.82129 34.5225 10.6211 34.0947 11.2598C33.667 11.8984 33.0986 12.3789 32.3896 12.7012C31.6865 13.0176 30.9219 13.1758 30.0957 13.1758C29.2285 13.1758 28.4434 13.0176 27.7402 12.7012C27.043 12.3789 26.4893 11.8984 26.0791 11.2598C25.6748 10.6211 25.4727 9.82129 25.4727 8.86035V0.203125H27.1514V8.86035C27.1514 9.52832 27.2744 10.0791 27.5205 10.5127C27.7666 10.9463 28.1094 11.2686 28.5488 11.4795C28.9941 11.6904 29.5098 11.7959 30.0957 11.7959C30.6875 11.7959 31.2031 11.6904 31.6426 11.4795C32.0879 11.2686 32.4336 10.9463 32.6797 10.5127C32.9258 10.0791 33.0488 9.52832 33.0488 8.86035V0.203125Z" fill="white" style="fill:url(#CerosGradient_id927b7ccdb);"/>
<path d="M37.3994 0.203125H41.6357C42.5967 0.203125 43.4082 0.349609 44.0703 0.642578C44.7383 0.935547 45.2451 1.36914 45.5908 1.94336C45.9424 2.51172 46.1182 3.21191 46.1182 4.04395C46.1182 4.62988 45.998 5.16602 45.7578 5.65234C45.5234 6.13281 45.1836 6.54297 44.7383 6.88281C44.2988 7.2168 43.7715 7.46582 43.1562 7.62988L42.6816 7.81445H38.7002L38.6826 6.43457H41.6885C42.2979 6.43457 42.8047 6.3291 43.209 6.11816C43.6133 5.90137 43.918 5.61133 44.123 5.24805C44.3281 4.88477 44.4307 4.4834 44.4307 4.04395C44.4307 3.55176 44.334 3.12109 44.1406 2.75195C43.9473 2.38281 43.6426 2.09863 43.2266 1.89941C42.8164 1.69434 42.2861 1.5918 41.6357 1.5918H39.0957V13H37.3994V0.203125ZM44.8789 13L41.7676 7.19922L43.5342 7.19043L46.6895 12.8945V13H44.8789Z" fill="white" style="fill:url(#CerosGradient_id927b7ccdb);"/>
<path d="M55.3115 9.76562C55.3115 9.4668 55.2646 9.20312 55.1709 8.97461C55.083 8.74023 54.9248 8.5293 54.6963 8.3418C54.4736 8.1543 54.1631 7.97559 53.7646 7.80566C53.3721 7.63574 52.874 7.46289 52.2705 7.28711C51.6377 7.09961 51.0664 6.8916 50.5566 6.66309C50.0469 6.42871 49.6104 6.16211 49.2471 5.86328C48.8838 5.56445 48.6055 5.22168 48.4121 4.83496C48.2188 4.44824 48.1221 4.00586 48.1221 3.50781C48.1221 3.00977 48.2246 2.5498 48.4297 2.12793C48.6348 1.70605 48.9277 1.33984 49.3086 1.0293C49.6953 0.712891 50.1553 0.466797 50.6885 0.291016C51.2217 0.115234 51.8164 0.0273438 52.4727 0.0273438C53.4336 0.0273438 54.248 0.211914 54.916 0.581055C55.5898 0.944336 56.1025 1.42188 56.4541 2.01367C56.8057 2.59961 56.9814 3.22656 56.9814 3.89453H55.2939C55.2939 3.41406 55.1914 2.98926 54.9863 2.62012C54.7812 2.24512 54.4707 1.95215 54.0547 1.74121C53.6387 1.52441 53.1113 1.41602 52.4727 1.41602C51.8691 1.41602 51.3711 1.50684 50.9785 1.68848C50.5859 1.87012 50.293 2.11621 50.0996 2.42676C49.9121 2.7373 49.8184 3.0918 49.8184 3.49023C49.8184 3.75977 49.874 4.00586 49.9854 4.22852C50.1025 4.44531 50.2812 4.64746 50.5215 4.83496C50.7676 5.02246 51.0781 5.19531 51.4531 5.35352C51.834 5.51172 52.2881 5.66406 52.8154 5.81055C53.542 6.01562 54.1689 6.24414 54.6963 6.49609C55.2236 6.74805 55.6572 7.03223 55.9971 7.34863C56.3428 7.65918 56.5977 8.01367 56.7617 8.41211C56.9316 8.80469 57.0166 9.25 57.0166 9.74805C57.0166 10.2695 56.9111 10.7412 56.7002 11.1631C56.4893 11.585 56.1875 11.9453 55.7949 12.2441C55.4023 12.543 54.9307 12.7744 54.3799 12.9385C53.835 13.0967 53.2256 13.1758 52.5518 13.1758C51.96 13.1758 51.377 13.0938 50.8027 12.9297C50.2344 12.7656 49.7158 12.5195 49.2471 12.1914C48.7842 11.8633 48.4121 11.459 48.1309 10.9785C47.8555 10.4922 47.7178 9.92969 47.7178 9.29102H49.4053C49.4053 9.73047 49.4902 10.1084 49.6602 10.4248C49.8301 10.7354 50.0615 10.9932 50.3545 11.1982C50.6533 11.4033 50.9902 11.5557 51.3652 11.6553C51.7461 11.749 52.1416 11.7959 52.5518 11.7959C53.1436 11.7959 53.6445 11.7139 54.0547 11.5498C54.4648 11.3857 54.7754 11.1514 54.9863 10.8467C55.2031 10.542 55.3115 10.1816 55.3115 9.76562Z" fill="white" style="fill:url(#CerosGradient_id927b7ccdb);"/>
</svg>