<svg xmlns="http://www.w3.org/2000/svg" width="32px" height="32px" viewBox="0 0 32 32" fill="none" aria-hidden="true"><defs><linearGradient class="cerosgradient" data-cerosgradient="true" id="CerosGradient_idcdff334bd" gradientUnits="userSpaceOnUse" x1="50%" y1="100%" x2="50%" y2="0%"><stop offset="0%" stop-color="#d1d1d1"/><stop offset="100%" stop-color="#d1d1d1"/></linearGradient><linearGradient/></defs>
<circle cx="16" cy="16" r="16" fill="#22B473"/>
<path d="M13.6827 25.0239C13.5643 24.9715 13.4659 24.8793 13.4031 24.7618C13.3402 24.6442 13.3165 24.5081 13.3356 24.3749L14.3886 17.1867H11.5941C11.5055 17.1892 11.4176 17.1704 11.337 17.1316C11.2565 17.0928 11.1855 17.0351 11.1296 16.963C11.0737 16.8909 11.0344 16.8063 11.0146 16.7158C10.9948 16.6252 10.9951 16.5311 11.0156 16.4406L12.7512 8.55494C12.7818 8.41923 12.856 8.29869 12.9614 8.21362C13.0667 8.12855 13.1968 8.08414 13.3298 8.08786H19.1154C19.2018 8.08756 19.2872 8.10756 19.3653 8.14639C19.4434 8.18523 19.5122 8.24193 19.5666 8.3123C19.6219 8.38347 19.661 8.46685 19.681 8.55616C19.7011 8.64547 19.7015 8.73838 19.6824 8.82791L18.6814 13.5472H21.4296C21.538 13.547 21.6443 13.5787 21.7364 13.6388C21.8285 13.6988 21.9026 13.7848 21.9503 13.8869C21.9918 13.9849 22.0077 14.0926 21.9965 14.1992C21.9854 14.3057 21.9474 14.4073 21.8867 14.4935L14.3654 24.8055C14.3146 24.8845 14.2467 24.9499 14.1673 24.9962C14.0879 25.0426 13.9992 25.0687 13.9083 25.0724C13.8309 25.0709 13.7544 25.0545 13.6827 25.0239Z" fill="white"/>
</svg>